<svg width="492" height="423" fill="none" xmlns="http://www.w3.org/2000/svg"><path d="M370.527 63.563c106.842 94.901 123.322 175.499 118.177 203.946-22.831 127.125-122.839 150.348-152.745 152.036-39.553 2.169-103.063-.724-144.867.401-114.398 6.509-160.784-57.696-169.627-90.562C-33.202 194.866 43.412 91.286 88.592 56.33c116.006-100.687 236.353-37.125 281.935 7.233Z" fill="#F7BC28"/><path d="M186.429 165.777c5.628-12.295 12.622-23.866 19.536-35.438l57.882-96.027c5.226-8.598 13.265-18.482 22.59-17.678 1.287.16 2.332 1.286 2.171 2.652 0 .16-.081.321-.081.562-4.662 13.66-12.46 26.116-22.67 36.322-2.412 2.33-5.226 3.937-5.628 5.142-.241.804-3.376 9.483-4.502 13.099-13.184 40.821-25.645 74.089-31.594 88.312" fill="#FFC9A0"/><path d="M229.68 156.214c-6.511 19.688-8.602 30.054-18.731 35.679l-53.622 20.169c8.683-16.553 19.536-39.535 29.585-55.285l42.768-.563Z" fill="#307549"/><path d="M177.827 166.902c17.285-.643 34.569-.402 51.773.803 1.286 0 2.412-1.125 2.412-2.41a2.594 2.594 0 0 0-2.412-2.411c-17.204-1.206-34.488-1.447-51.773-.804-3.135.081-3.135 4.982 0 4.822Z" fill="#153A23"/><path d="M183.455 203.062c-2.492-11.008-2.171-25.312 5.467-37.366 1.688-2.651-.965-4.419-2.412-1.687-6.592 12.455-10.371 14.786-10.532 40.5 0 3.134 3.296 2.973 3.216-.161l4.261-1.286ZM193.665 197.036c4.019-10.527 7.878-21.777 12.541-32.063.563-1.205.804-1.687-.483-2.491a2.56 2.56 0 0 0-3.376.884c-6.512 11.732-7.878 27.964-13.425 32.384-1.046.804.482 2.652 1.688 3.054 1.286.241 2.653-.483 3.055-1.768ZM201.945 198.08c1.608-2.33 4.18-3.776 6.271-5.544 2.331-1.929 1.206-4.902 3.215-7.152 3.538-3.857 6.834-8.438 9.808-18.322.884-3.053-5.145-4.419-5.708-1.285-1.688 9.241-3.376 12.053-6.27 17.518-1.287 2.491-3.136 4.66-5.306 6.348-2.332 1.848-4.583 3.455-6.271 5.946a2.557 2.557 0 0 0 .885 3.375c1.205.643 2.733.241 3.376-.884Z" fill="#153A23"/><path d="M160.302 246.937c-26.047.563-72.916-8.839-98.963-8.999-16.4-.161-27.735 3.776-48.798-9.081-2.25-1.286-4.26-2.893-5.868-4.902-.965-1.285.24-3.214 1.688-2.651 14.631 6.267 32.237-3.697 47.19 2.33 10.933 4.42 72.112-.723 107.324-8.518M422.139 119.17a1298.187 1298.187 0 0 1-45.502 82.125c-10.29-10.849-13.425-13.259-26.208-25.232l1.046 60.026 21.947 12.456c4.26 2.41 8.762 4.901 13.666 4.741 10.371-.322 16.481-11.572 20.098-21.295 12.3-33.107 21.626-72.161 27.736-106.955l-12.783-5.866ZM277.755 273.536c3.778 45.321 5.547 77.062 8.119 132.91 4.261-.241 12.461.161 16.561 1.206 4.985-37.447 11.496-95.786 16.32-135l-41 .884Z" fill="#FFC9A0"/><path d="M162.473 206.036c38.829-18.482 80.472-35.197 121.874-46.929-.241 30.697-1.206 48.616-1.045 87.911-38.026.241-75.971-1.607-113.755-5.464l-7.074-35.518Z" fill="#39B55D"/><path d="M351.475 236.089c-7.316-4.178-17.606-11.169-26.691-16.553-3.135 22.018-2.974 31.259-6.029 53.196-12.622 0-28.378.723-41 .804l-.241-112.42c23.233-9.402 50.888-7.152 72.996 14.946l.965 60.027Z" fill="#153A23"/><path d="M168.582 239.625c14.391.08 21.947-.482 36.338.241 10.451.562 22.349.402 49.602 1.929 9.888.562 21.786.241 31.674.241 3.135 0 3.135-7.795 0-7.795-16.722 0-33.443 2.652-50.165 2.17-14.229-.402-28.539-.965-42.768-1.286-8.281-.241-16.481-.322-24.761-.402-3.055 0-3.135 4.902.08 4.902ZM153.469 226.045c19.133.642 38.186-.643 57.319-1.286 18.169-.563 37.383.482 55.471-.482 7.959-.402 18.972-4.741 22.992-2.17 2.653 1.688 3.135-2.812 0-2.893-13.265-.643-32.077.643-47.673 1.366-19.133.884-37.302.723-56.515.884-10.532.081-21.063.081-31.594-.241-3.136-.161-3.136 4.741 0 4.822ZM150.414 211.259c18.008.08 30.147 4.821 47.913 1.928 17.526-2.892 36.177-3.937 61.822-4.098 10.129-.08 18.249-2.491 28.378-3.294 1.287-.081 2.412-1.125 2.412-2.492 0-1.205-1.125-2.812-2.412-2.41-4.984 1.285-26.207 4.982-53.943 3.535-17.927-.883-43.251 3.697-61.178 4.018-10.13.161-12.863-2.009-22.992-2.089-3.136.08-3.136 4.902 0 4.902ZM170.029 195.027c30.791-1.125 58.928.08 89.718-1.688 8.763-.482 20.098-3.294 28.861-3.937 1.366 0 2.412-1.125 2.412-2.491s-1.126-2.411-2.412-2.411c-30.71 2.089-58.043 5.946-92.371 4.58-8.762-.321-17.525.643-26.288.965-3.055.241-3.135 5.143.08 4.982ZM218.345 175.821c20.982.081 42.045-.482 63.028-1.687a656.508 656.508 0 0 0 17.686-1.205c1.366 0 2.412-1.125 2.412-2.411 0-1.366-1.126-2.411-2.412-2.491-20.983 1.607-41.965 2.571-62.947 2.812-5.949.081-11.818.081-17.767.081-3.216.08-3.216 4.901 0 4.901Z" fill="#153A23"/><path d="M46.547 150.268c-2.25.803-4.18 2.169-5.547 4.098-3.135 4.179-3.055 13.018 2.653 15.67 3.537 1.687 10.049 2.33 13.023-.241a17.824 17.824 0 0 0 5.547-7.715" fill="#32142A"/><path d="m71.308 184.5 10.45 6.509c.322.161.644.402.885.723.241.402.322.884.322 1.366l.402 13.741c.08.482 0 1.045-.322 1.447-.241.241-.643.482-.965.562-3.939 1.286-7.878 2.491-11.898 3.536l1.126-27.884Z" fill="#E48929"/><path d="M72.353 173.25c.482 15.027.241 30.134-.804 45.161-.08 1.044-.241 2.25-1.045 3.053-.804.804-2.09.804-3.296.804-19.937.08-39.875.161-59.812.08-.563.081-1.206-.08-1.688-.402-.322-.401-.563-.883-.563-1.446a172.807 172.807 0 0 1-.723-46.446l67.93-.804ZM87.225 185.786c.08 8.839 0 17.678-.08 26.437 0 .563 0 1.206-.08 1.768-.08.482-.161.482-.322.482-1.849.081-3.778.081-5.627.081-.08 0-.08 0-.161-.242 0-.241-.08-.562-.08-.803-.242-9-.242-18.723-.08-27.804l6.43.081Z" fill="#32142A"/><path d="M45.582 168.83c3.457.322 6.995.724 10.13-.562 3.135-1.286 5.949-3.857 6.672-7.152.885-3.777-1.045-7.875-4.34-10.045-3.458-2.089-7.638-2.491-11.416-1.044-1.046.321-2.01.884-2.814 1.527C42.126 153 41.402 155.25 41 157.42c-.482 2.089-.402 4.259.08 6.348.644 2.169 2.171 3.857 4.261 4.661" fill="#E48929"/><path d="M46.065 175.178c2.814-4.66 5.225-9.562 7.315-14.624l-3.457-.081c-.401 0-.723 0-1.044.161a2.452 2.452 0 0 0-.644.643c-3.215 4.58-4.904 9.964-7.959 14.625M15.274 141.589c-3.054 1.125-5.707 3.215-7.556 5.866-4.18 5.947-3.779 18.161 4.26 21.697 4.985 2.169 13.989 2.812 18.089-.804 3.456-2.893 6.03-6.669 7.396-10.928" fill="#32142A"/><path d="M7.798 161.277c-1.367-2.732-.884-5.947-.402-8.92s1.447-6.187 3.779-8.357c1.125-.964 2.492-1.768 3.858-2.33 5.146-2.009 11.416-1.849 16.079 1.044s7.557 8.599 6.431 13.902c-.965 4.58-4.743 8.277-9.165 10.286.08 0-15.676 4.339-20.58-5.625Z" fill="#E48929"/><path d="M27.816 147.857c-.161-.321-.161-.723-.08-1.125 0-.402.16-.723.482-.964.16-.081.321-.241.482-.322.643-.241 1.367-.241 1.93.161.562.322.884 1.045.803 1.688-.16.562-.562 1.044-1.125 1.205 0 0-1.93.562-2.492-.643ZM30.951 155.813c-.08-.322-.08-.724 0-1.125 0-.402.16-.724.482-.965.161-.16.322-.241.483-.321.643-.241 1.366-.241 1.93.161.562.321.883 1.044.803 1.687-.16.563-.563 1.045-1.126 1.205 0 .081-1.929.563-2.572-.642ZM18.973 145.446c-.161-.321-.161-.723-.08-1.125 0-.401.16-.723.482-.964.16-.08.321-.241.482-.321.643-.241 1.367-.241 1.93.16.562.322.884 1.045.803 1.688-.16.562-.563 1.045-1.125 1.205 0 0-1.93.563-2.492-.643ZM10.692 149.705c-.16-.321-.16-.723-.08-1.125 0-.401.16-.723.482-.964.16-.08.322-.241.482-.321.644-.241 1.367-.241 1.93.16.563.322.884 1.045.804 1.688-.161.562-.563 1.045-1.126 1.205.08 0-1.849.563-2.492-.643ZM9.406 158.464c-.16-.321-.16-.723-.08-1.125 0-.402.16-.723.482-.964.16-.08.321-.241.482-.321.643-.242 1.367-.242 1.93.16.562.322.884 1.045.803 1.688-.16.562-.562 1.044-1.125 1.205.08 0-1.849.563-2.492-.643ZM16.4 164.411c-.16-.322-.16-.724-.08-1.125 0-.402.16-.724.482-.965.16-.08.322-.241.482-.321.643-.241 1.367-.241 1.93.161.563.321.884 1.044.804 1.687-.161.563-.563 1.045-1.126 1.206 0 .08-1.93.562-2.492-.643ZM25.886 162.563c-.16-.322-.16-.724-.08-1.125 0-.402.16-.724.482-.965.161-.08.322-.241.483-.321.643-.241 1.366-.241 1.929.161.563.321.884 1.044.804 1.687-.16.563-.563 1.045-1.126 1.205.08.081-1.849.563-2.492-.642ZM55.953 154.929a1.117 1.117 0 0 1 0-.724c0-.401.241-.723.643-.884.482-.16.965-.08 1.367.161s.563.723.482 1.205c-.16.402-.402.643-.804.804 0-.08-1.366.241-1.688-.562ZM57.963 160.473a1.114 1.114 0 0 1 0-.723c0-.241.16-.482.321-.723.08-.081.242-.161.322-.161.482-.161.965-.161 1.367.08.401.241.643.724.482 1.206-.16.402-.402.643-.804.803.08 0-1.286.402-1.688-.482ZM49.763 153a1.115 1.115 0 0 1 0-.723c0-.241.16-.482.321-.724.08-.08.241-.16.322-.16.482-.161.965-.161 1.367.08.401.241.562.723.482 1.205-.16.402-.402.643-.804.804.08.08-1.286.402-1.688-.482ZM43.974 155.893a1.114 1.114 0 0 1 0-.723c0-.241.161-.483.322-.724.08-.08.241-.16.322-.16.482-.161.964-.161 1.366.08.402.241.563.723.483 1.205-.161.402-.402.643-.804.804.08 0-1.286.321-1.688-.482ZM42.93 161.92c-.161-.483 0-1.045.321-1.447.08-.08.241-.161.322-.161.482-.16.964-.16 1.366.081.402.241.643.723.483 1.205-.08.402-.402.723-.804.884.08 0-1.287.322-1.689-.562ZM47.672 166.179a1.117 1.117 0 0 1 0-.724c0-.241.161-.482.322-.723.08-.08.241-.161.322-.161.482-.16.964-.08 1.366.081.402.241.563.723.483 1.205-.161.402-.402.643-.804.804.08 0-1.286.401-1.688-.482ZM54.345 165.054a1.117 1.117 0 0 1 0-.724c0-.241.16-.482.322-.723.08-.08.24-.161.321-.161.483-.16.965-.16 1.367.081s.563.723.482 1.205c-.16.402-.402.643-.804.804 0 .08-1.286.401-1.688-.482Z" fill="#32142A"/><path d="m36.096 175.179-13.023-21.134a1.589 1.589 0 0 0-.885-.884 1.773 1.773 0 0 0-1.286 0l-3.055.562c4.824 7.152 9.084 14.706 12.541 22.581" fill="#32142A"/><path d="M210.869 244.929a28.22 28.22 0 0 0 4.341-16.233s-2.734 9-19.214 15.429l14.873.804Z" fill="#307549"/><path d="m324.784 219.536-23.474-14.545 21.384 31.179 2.09-16.634Z" fill="#122D1C"/><path d="M131.361 155.33c1.045 19.688-4.743 39.134-4.985 58.822a8.237 8.237 0 0 0 .402 3.134c.885 2.089 3.457 2.973 5.789 3.294 6.994.965 14.068-1.125 20.741-3.616 3.055-1.125 6.27-2.491 8.2-5.062 1.929-2.572 2.331-6.188 2.572-9.482 1.206-15.991 2.493-42.67 1.769-58.741l-34.488 11.651Z" fill="#FFC9A0"/><path d="M170.753 181.607c7.959-14.866 15.435-31.661 11.737-45.321-.643-2.893-2.09-5.465-4.261-7.554-5.145-4.661-13.184-3.375-20.017-2.009-9.004 1.848-19.777 2.893-25.967-3.857-1.367-1.446-2.412-3.214-3.939-4.339-1.528-1.125-4.02-1.607-5.467-.241-.965.884-1.206 2.33-1.286 3.616-1.126 10.527.321 21.616 6.11 30.455 5.788 8.839 16.4 14.947 26.851 13.42 1.125-.161 2.411-.322 3.135.482.322.402.482.804.643 1.286l4.261 14.062h8.2Z" fill="#32142A"/><path d="M160.543 176.143c3.859-2.813 9.326-2.009 12.22 1.928a8.637 8.637 0 0 1 .482 9.563c-2.572 4.339-8.361 5.625-13.425 5.545l.723-17.036Z" fill="#FFC9A0"/><path d="M177.425 167.946c-20.098.643-45.984-13.339-45.984-13.339.081 2.973-.08 7.554-.08 10.447 13.586 1.607 29.986 9 43.653 8.196 0 0 1.286-2.491 2.411-5.304Z" fill="#39B55D"/><path d="M126.376 149.786c2.412 5.785 7.557 10.205 13.346 12.696 5.788 2.491 12.139 3.295 18.49 3.536 1.447.08 2.894 0 4.341-.161 1.929-.482 3.859-1.205 5.627-2.17l-41.804-13.901Z" fill="#32142A"/><path d="m351.475 236.089 3.456 2.009-3.456-60.991-1.046-1.045 1.046 60.027ZM277.755 273.536l.241 2.732 40.357-.563.321-2.973-40.919.804Z" fill="#EFB086"/><path d="M154.031 202.821c8.04 1.286 21.063 2.491 29.102 3.777 6.271.964 12.702 2.009 18.41 4.661 5.708 2.652 11.014 7.232 12.943 13.259.643 1.848.804 3.857.563 5.786-.965 5.946-6.994 9.482-12.541 11.812-15.516 6.589-31.996 10.366-48.798 11.25l.321-50.545Z" fill="#39B55D"/><path d="M165.206 253.366c-.724-17.277-.322-34.554 1.286-51.83 0-1.286-1.125-2.411-2.412-2.411-1.366 0-2.411 1.125-2.492 2.411-1.608 17.196-2.01 34.553-1.286 51.83.161 3.134 5.065 3.134 4.904 0Z" fill="#153A23"/><path d="M164.161 215.116a155.77 155.77 0 0 1 19.374 0c6.914.563 15.596 3.295 22.269 5.223 2.974.723 5.788 1.929 8.361 3.375 2.733 1.607 5.145-2.571 2.492-4.259-5.386-3.214-11.898-4.741-18.008-5.785-7.476-1.286-14.953-1.929-22.51-2.09-3.778-.08-7.557-.08-11.335.161-3.135.161-3.135 5.063 0 4.902l-.643-1.527ZM163.759 231.107c36.578-1.527 51.451-2.411 55.872-1.045 1.287.402 2.412-1.044 2.412-2.41 0-1.286-1.125-2.652-2.412-2.411-19.294 2.893-37.221 1.688-55.872 1.045-3.135-.081-3.135 4.821 0 4.821ZM163.678 244.527c14.31.643 29.102.964 43.171-2.17 3.618-.803 7.155-1.928 10.612-3.455a2.558 2.558 0 0 0 .884-3.375 2.559 2.559 0 0 0-3.376-.884c-5.708 2.571-12.14 3.696-18.33 4.42-7.155.803-13.104 2.571-20.339 2.491-3.778-.081-9.567-.402-13.345-.563-3.055-.08-2.412 3.375.723 3.536Z" fill="#153A23"/><path d="m128.869 219.455 25.162-7.473v4.902l-25.162 2.571ZM164.724 192.777s-2.895.08-4.1-.402l3.939 2.411.161-2.009Z" fill="#EFB086"/><path d="M162.231 190.045c2.01.241 4.02-.241 5.708-1.286 1.447-.884 2.332-2.411 2.573-4.098.241-1.607.08-3.295-.643-4.822-.644-1.366-1.849-2.25-3.296-2.571-1.689-.322-3.538-.08-5.065.723-.402.241-.563.804-.322 1.205.241.402.724.563 1.126.322 1.768-.804 4.743-1.125 5.868.884.563 1.125.804 2.411.644 3.616 0 1.205-.563 2.33-1.448 3.134-1.527 1.044-3.376 1.527-5.145 1.286a.891.891 0 0 0-.884.883c0 .322.402.643.884.724Z" fill="#32142A"/><path d="M162.633 186.429c.643 0 1.367-.081 1.93-.402.643-.322 1.045-.804 1.286-1.527a2.558 2.558 0 0 0 0-2.17c-.241-.482-.724-.964-1.206-1.125-.723-.321-1.447-.401-2.17-.401a.892.892 0 0 0-.885.884c0 .482.402.883.885.883H163.276c.161 0 .322.081.483.081l.161.08h-.081.081c.08 0 .16.081.16.081h.081-.081l.242.241c-.081-.081-.081-.081 0-.081l.08.081v.08c.08.08 0 .08 0-.08 0 .08 0 .08.08.16 0 .081 0 .081 0 0v.161c0 .08 0 .161-.08.241-.08.161-.08.322-.161.402v-.08l-.08.08c0 .08-.081.161-.081.161l.081-.081-.081.081-.08.08c.08-.08.08-.08.08 0l-.16.08h-.081c-.08.081-.321.081-.402.081-.08 0-.321.08-.08 0h-.724a.955.955 0 0 0-.804.964c.081.643.402.964.804 1.045Z" fill="#32142A"/><path d="M130.155 178.875c-1.206.884-4.984 9.723-5.628 16.152-.08 1.125.724 2.169 1.93 2.25 1.929.16 3.778.16 5.708 0 .241 0 .482-.081.723-.161.241-.321.402-.643.322-1.045l-3.055-17.196Z" fill="#E48929"/><path d="m260.551 60.429-7.878 6.508h5.627l2.251-6.508Z" fill="#EFB086"/><path d="m395.931 168.027 27.173 12.455s8.119-29.571 11.898-55.446l-13.908-3.697-25.163 46.688Z" fill="#39B55D"/><path d="M417.476 129.295c3.538-6.268 13.265-.322 15.275 2.41 2.09 2.813 5.145-2.089 7.557-4.58 2.814-2.973 13.184-5.786 20.419-7.473 4.502-1.045 9.004-2.25 13.587-3.134 3.135-.643 9.406-.964 11.013-2.813 5.226-5.866-6.592-6.75-9.807-6.83-10.612-.402-21.224-.161-31.836-.402-8.28-.16-22.509-.321-25.002 1.768-4.582 3.938-5.708 13.661-6.592 19.205-.965 6.108 2.251 7.393 5.386 1.849Z" fill="#153A23"/><path d="M400.835 169.554c.804-2.492 1.849-4.822 3.136-7.152.321-.563.16-1.366-.402-1.688-.563-.321-1.367-.16-1.689.402-1.286 2.491-2.411 5.063-3.296 7.714-.161.643.241 1.286.885 1.527.482.241 1.125-.161 1.366-.803ZM405.739 172.125a23.081 23.081 0 0 1 3.296-7.473c.322-.563.161-1.366-.482-1.688-.563-.321-1.367-.16-1.688.482a22.55 22.55 0 0 0-3.538 8.036c-.16.643.242 1.286.885 1.527.643.161 1.366-.241 1.527-.884ZM411.206 174.134c0-.161 0-.161 0 0v-.322c0-.08.08-.321.08-.482.081-.321.081-.562.161-.884a16.33 16.33 0 0 1 .563-1.848 5.824 5.824 0 0 1 .723-1.607l.965-1.687c.322-.563.161-1.367-.402-1.688-.563-.321-1.286-.161-1.688.482-1.608 2.411-2.573 5.143-2.894 8.036 0 .643.562 1.205 1.206 1.205.643 0 1.206-.562 1.286-1.205ZM416.11 177.268a28.052 28.052 0 0 1 1.688-7.152c.161-.643-.241-1.286-.884-1.527-.643-.16-1.287.241-1.528.884-.964 2.491-1.608 5.143-1.768 7.795 0 .643.562 1.205 1.206 1.205.723 0 1.286-.482 1.286-1.205ZM420.049 179.598l2.975-7.393c.16-.643-.242-1.285-.885-1.526-.643-.161-1.286.241-1.527.883l-2.975 7.393c-.161.643.241 1.286.885 1.527.643.08 1.366-.241 1.527-.884Z" fill="#227B3D"/><path d="M308.786 356.705c-2.251 18.804-3.698 32.063-5.949 48.215l-16.962 1.607c-.965-21.215-1.849-34.554-2.412-50.224l25.323.402Z" fill="#39B55D"/><path d="M303.32 400.58c-.644 4.661-.885 9.322-1.528 13.983-.563 4.258-5.467 3.937-8.682 4.098-8.602.482-14.23.643-21.063.643-4.422.16-8.843.241-13.265.321h-6.672c-1.447 0-4.663.161-5.708-.321-2.653-1.286-2.573-6.831.402-7.875 5.145-1.768 11.174-1.527 16.561-2.331 5.708-.723 11.255-2.169 16.641-4.178 2.894-1.125 5.868-2.572 8.923-2.25 2.01.241 3.859 1.205 5.789 1.446 1.688.241 3.698-.321 4.582-1.687.402-.724.884-1.286 1.447-1.849 1.286-1.125 2.894-2.25 2.573 0Z" fill="#153A23"/><path d="M286.598 364.42a45.643 45.643 0 0 1 0-8.116c0-.643-.563-1.206-1.206-1.206s-1.206.563-1.206 1.206c-.241 2.732-.161 5.383 0 8.116-.08.642.322 1.285 1.045 1.366.644.08 1.287-.322 1.367-1.045v-.321ZM292.145 364.5a21.623 21.623 0 0 1 0-7.875c.161-.643-.241-1.286-.884-1.527-.643-.161-1.286.241-1.528.884a25.1 25.1 0 0 0 0 9.161c.161.643.885 1.044 1.528.884.643-.161 1.045-.804.884-1.527ZM297.933 364.5a15.737 15.737 0 0 1-.482-7.232c.161-.643-.241-1.286-.884-1.527-.643-.161-1.287.241-1.528.884a19.073 19.073 0 0 0 .483 8.518c.16.643.884 1.044 1.527.884.643-.161 1.126-.884.884-1.527ZM303.802 365.384c-.804-2.33-1.286-4.741-1.367-7.232.081-.643-.321-1.286-1.045-1.366-.643-.081-1.286.321-1.366 1.044v.402c.08 2.652.562 5.304 1.447 7.875.16.643.884 1.045 1.527.884.643-.161.965-.964.804-1.607ZM308.223 365.946l-.241-7.955c.081-.643-.321-1.286-1.045-1.366-.643-.08-1.286.321-1.366 1.045v.401l.241 7.956c-.081.643.321 1.286 1.045 1.366.643.08 1.286-.322 1.366-1.045v-.402Z" fill="#227B3D"/><path d="M275.504 174.777c8.682-2.572 17.204-4.581 26.047-4.822 11.014-.321 21.867 2.491 31.273 8.116 6.913 4.34 13.184 9.724 18.409 15.992a2.428 2.428 0 0 0 3.457 0 2.425 2.425 0 0 0 0-3.456c-9.164-10.607-20.661-19.286-34.166-23.223-10.451-2.973-21.304-2.893-31.916-.964a150.41 150.41 0 0 0-14.39 3.616c-2.975.964-1.689 5.705 1.286 4.741Z" fill="#307549"/><path d="M461.049 103.741c-12.782 4.741-28.298 2.732-39.553-10.044-6.753-7.715-8.521-17.92-6.592-27.804 5.869-29.973 49.843-37.527 64.957-10.286 11.898 21.616-.804 41.465-18.812 48.134Z" fill="#BBD1CE"/><path d="M142.375 175.018h.723l.402.08h-.161c.483.161.965.161 1.447.322.483.16.885.321 1.287.482.321.08-.483-.241-.081-.081l.322.161c.241.081.482.241.723.322l1.206.723.241.161c.402.321-.321-.242-.08-.081.241.161.322.322.563.482.402.322.723.643 1.045 1.045l.161.241c.241.321.08.08-.081-.08.161.241.322.401.483.643.643 1.125 2.17 1.526 3.376.883 1.206-.642 1.527-2.169.884-3.375a15.399 15.399 0 0 0-12.3-6.83c-1.366 0-2.411 1.125-2.492 2.491 0 1.286 1.045 2.331 2.332 2.411ZM142.053 180.964c-.08.081-.08.161-.161.241-.482 1.045-1.527 3.697-.723 4.741.804 1.045 2.331.724 3.215-.16a3.802 3.802 0 0 0 0-5.063c-.402-.482-1.045-.723-1.688-.482-.241.241-.482.482-.643.723ZM145.269 192.134a11.563 11.563 0 0 0 4.502-5.464c.16-.482-.161-.884-.563-1.045-.482-.08-.884.161-1.045.563l-.081.08-.08.08-.161.322c-.08.241-.241.482-.402.723-.161.241-.241.482-.402.643l-.241.321c.081-.161-.08.081-.08.081l-.081.16a7.387 7.387 0 0 1-1.125 1.125l-.322.241-.161.161c.081-.08.001 0-.08 0-.241.161-.402.321-.643.482-.402.241-.643.723-.402 1.125s.724.643 1.125.402c.161 0 .161-.08.242 0ZM148.565 193.741c1.045-.643 2.01-1.446 2.733-2.411.161-.16.161-.401.08-.643a.825.825 0 0 0-.401-.482c-.161-.08-.402-.16-.644-.08a.82.82 0 0 0-.482.402l-.08.16.16-.16c-.402.482-.884.964-1.366 1.366l.161-.161c-.322.241-.644.482-.965.643-.402.241-.563.804-.322 1.205.161.322.724.482 1.126.161Z" fill="#32142A"/><path d="M462.657 81.321c-5.226 2.09-9.808 4.661-14.953 6.75-4.181-4.098-9.245-6.508-13.426-10.687.242.803-.241-.804 0 0 1.126-5.304 2.412-10.768 3.538-16.152 4.984-1.205 9.004-2.732 13.988-3.777l-.643-.08c4.582 3.375 8.843 5.223 13.345 8.598-.402-.884.402.965 0 0-.804 4.982-1.045 10.366-1.849 15.348-.241 1.286-1.93 2.411-.563 2.733 1.206.321 2.814-.402 3.055-1.688l2.331-14.786c.242-1.044-.241-2.17-1.125-2.732l-7.477-5.544-4.743-3.536c-.402-.322-.804-.643-1.206-.884-1.205-.804-2.733-.241-4.019.08-4.261 1.045-8.441 2.652-12.702 3.697-.804.24-1.528.884-1.688 1.687l-2.01 9.884-1.126 5.304a4.542 4.542 0 0 0-.241 1.446c0 1.929 2.733 3.616 4.1 4.66 3.377 2.653 7.075 5.063 10.21 8.117a2.438 2.438 0 0 0 2.412.643l15.676-6.268c1.286-.402 2.01-1.688 1.688-3.054-.402-1.205-1.366-.24-2.572.241Z" fill="#153A23"/><path d="M462.094 83.09c.241.08.884.401 0 0l.563.24c2.733 1.366 5.306 3.215 8.039 4.661a19.997 19.997 0 0 0 3.537 1.607c.644.241 5.467.804 3.779-.402-1.528-1.044-4.824-2.892-6.753-4.178-2.573-1.688-5.065-3.616-7.396-5.625 2.974 2.571-.402 2.571-2.09 3.535.16.08.241.161.321.161ZM443.122 102.214c1.527-4.66 3.698-8.92 5.386-13.5.482-1.205-.563.563-1.769.322-1.366-.322-1.527-1.929-2.01-.643-1.688 4.58-2.331 8.437-3.858 13.098-.402 1.205-.804 2.411.402 2.732 1.205.322 1.045-.161 1.447-1.446l.402-.563ZM432.831 75.214c-.884.16-1.688.402-2.572.804a20.514 20.514 0 0 1-5.386.964l-3.859.482c-.885.08-2.412.482-3.296.643-.885.16-1.769.482-.402 1.286.402.16.804.24 1.206.16 2.733 0 5.466 0 8.2.242 2.653.321 5.386.321 8.119 0 1.287-.161-1.929-1.688-2.251-2.572-.321-.884 1.608-2.25.241-2.009ZM437.414 58.58c-.161-.08-.322.483-.483.402 0 0 .563-.321.322-.482-.08 0-.161.563-.322.482a7.343 7.343 0 0 1-1.125-.562c-1.688-.884-3.296-1.929-4.984-2.813-1.689-.884-3.216-1.687-4.824-2.49-.643-.322-3.055-1.608-3.216-.804 0 .642.241 1.285.724 1.687a43.324 43.324 0 0 0 4.18 3.455c1.367 1.206 2.894 2.25 4.422 3.295 1.688 1.045 2.09 1.929 3.939 2.572 1.206.401-1.125-.804-.804-2.01.402-1.365 3.457-2.25 2.171-2.732ZM453.171 57.134c.643-1.125 1.205-1.527 1.447-2.732.643-2.491 1.607-4.822 2.733-7.152.804-1.527 1.527-3.134 2.251-4.821.161-.563.482-1.527 0-2.01-.322-.32-.965-.16-1.286.081a4.633 4.633 0 0 0-1.447 1.848c-1.287 2.25-2.653 4.5-3.859 6.83-.563 1.126-1.045 2.25-1.688 3.295l-1.93 3.134c-.643 1.045 1.126-.402 2.331.241 1.206.643.724 2.41 1.448 1.286ZM466.355 69.027a208.47 208.47 0 0 1 9.567-4.58l-.322.16c1.367-.402 6.271-3.053 5.627-4.259-.321-.643-4.18.482-5.225.965-1.045.482-4.341 1.446-5.547 1.848-2.171.643-4.502.643-6.512 1.687-1.125.563.804.724 1.447 1.849.643 1.124-.241 2.973.965 2.33ZM427.043 109.446l.081-3.375-1.769 2.331c2.17-.322 4.421-.723 6.592-1.125l-.643.08h.402l-.643-.08c.402.08.161-.081-.643-.402a1.67 1.67 0 0 1-.322-.482c-.161-.402 0 0 0 .08l.241.965.402 2.089c.402 1.286 1.688 2.089 2.975 1.687 1.286-.401 2.009-1.687 1.688-3.053-.241-1.045-.402-2.09-.643-3.134-.161-.804-.643-1.447-1.206-1.929-.884-.643-1.93-.803-2.975-.562-2.17.321-4.341.723-6.511 1.044-.483.161-.965.402-1.287.884-.321.402-.482.965-.562 1.527l-.081 3.375c0 1.286 1.126 2.411 2.412 2.411a2.475 2.475 0 0 0 2.492-2.331ZM466.274 105.75c-.08 0-.08-.08-.16-.08l.402.482c0-.081-.081-.081-.081-.161l.241.563c0-.081 0-.081-.08-.161l.08.643v-.241l-.08.642c0-.08.08-.16.08-.241l-.241.563c0-.08.081-.08.081-.161l-.402.482.16-.16-.482.401c.081-.08.241-.16.322-.16l-.563.241c.161-.081.322-.081.482-.081l-.643.081c.804-.081 1.608-.081 2.492-.081.804 0 1.528 0 2.332.081l-.643-.081c.241.081.562.081.803.241l-.562-.241c.161.081.321.161.482.322l-.482-.402c.161.08.241.241.321.321l-.402-.482.242.482-.242-.562c.081.161.081.241.081.402l-.081-.643v.402l.081-.643c0 .08 0 .161-.081.241l.242-.563c0 .081-.081.161-.161.241-.643 1.206-.322 2.652.884 3.375a2.56 2.56 0 0 0 3.377-.883c.964-1.608.643-3.697-.804-4.983-1.287-1.205-2.975-1.366-4.663-1.366h-2.09c-.804 0-1.528.081-2.332.241-1.125.322-2.09 1.286-2.411 2.411-.322 1.125-.001 2.411.884 3.214.482.402 1.045.724 1.768.724 1.287 0 2.412-1.125 2.412-2.411 0-.643-.241-1.286-.723-1.688l.16-.321ZM253.718 416.571c-1.769 1.447-1.126 4.5.804 5.545 1.607.964 3.456.563 5.145.402l2.331-.241c.884 0 1.769-.161 2.653-.322 1.447-.401 2.412-1.607 2.412-3.053v-2.25c0-1.366-1.126-2.411-2.412-2.411a2.418 2.418 0 0 0-2.412 2.411v2.009c0 .321 0-.081.081-.241l.804-1.045c.402-.161.482-.161.321-.161-.161 0 .643-.08.241 0-1.125.081-2.331.241-3.457.322-1.045.16-2.17.241-3.215.321h-.322c.402.081.483.081.322 0h-.161c-.241 0 .402.322.08.08 0 0 .483.402.242.161.241.322.321.402.241.241-.081-.08 0-.08.08.161s.08.241.08.161v.402c0-.322-.08.321-.08.321-.08.241-.161.402-.321.562-.161.161-.161.242-.081.081a2.425 2.425 0 0 0 0-3.456c-.884-.883-2.412-.883-3.376 0ZM288.688 421.473h4.663c.482 0 1.045 0 1.527-.161.885-.241 1.608-.883 1.93-1.687.241-.964.321-2.009.241-3.054 0-.643-.241-1.285-.723-1.768a2.333 2.333 0 0 0-3.377-.08c-.482.482-.804 1.125-.723 1.848v1.929l.08-.643v.161l.241-.563v.081l.402-.483c0 .081-.08.081-.08.081l.482-.402s-.08.08-.161.08l.563-.241c-.08 0-.161 0-.241.081l.643-.081c-.884.081-1.769 0-2.653 0h-2.733c-.643 0-1.287.241-1.689.724-.482.482-.723 1.044-.723 1.767 0 1.206 1.045 2.331 2.331 2.411Z" fill="#153A23"/><path d="M287 408.536c2.412 1.768 4.824 3.857 7.155 5.866a1.263 1.263 0 0 0 1.769 0 1.262 1.262 0 0 0 0-1.768 185.767 185.767 0 0 0-7.638-6.268c-.562-.321-1.366-.161-1.688.402-.322.643-.161 1.366.402 1.768ZM281.855 411.107c1.929 1.768 4.02 3.375 6.19 4.902.563.321 1.367.161 1.688-.402.322-.562.161-1.286-.402-1.687-.482-.322-1.045-.724-1.527-1.045-.241-.161-.482-.402-.724-.563l-.08-.08-.08-.08-.402-.322c-.965-.803-1.93-1.607-2.814-2.41-.482-.483-1.286-.483-1.688 0-.402.482-.643 1.205-.161 1.687ZM425.274 113.705l5.548 11.411c.321.563 1.125.804 1.688.482.563-.321.804-1.125.402-1.687l-5.547-11.331c-.322-.562-1.126-.803-1.689-.401-.562.241-.723.964-.402 1.526ZM431.384 111.696c.643 1.688 1.447 3.295 2.332 4.822.964 1.768 1.929 3.455 2.733 5.303.322.563 1.125.804 1.688.402.563-.321.804-1.125.402-1.687-.804-1.768-1.768-3.456-2.653-5.143-.402-.804-.884-1.607-1.286-2.491-.161-.402-.402-.804-.563-1.125l-.08-.241c-.161-.322.08.08 0-.081-.081-.16-.161-.321-.161-.482-.161-.643-.884-1.044-1.527-.884-.644.241-1.046.965-.885 1.607Z" fill="#227B3D"/><path d="M268.027 38.813c6.432-7.554 13.506-14.626 20.983-21.134 1.206-1.045-.563-2.733-1.688-1.688-7.557 6.509-14.551 13.66-20.983 21.214-1.045 1.125.643 2.893 1.688 1.608ZM273.173 41.464c5.466-5.384 10.692-11.089 16.4-16.151 1.205-1.045-.563-2.813-1.769-1.688-5.708 5.143-10.933 10.768-16.4 16.232-1.126.964.643 2.732 1.769 1.607Z" fill="#EFB086"/><path d="M89.477 291.295c-3.699 3.535-2.814 10.928 3.537 9.16 9.325-2.651 2.814-15.187-3.537-9.16ZM116.81 81.884c-1.849 1.768-1.367 5.464 1.768 4.58 4.744-1.285 1.448-7.553-1.768-4.58ZM274.298 111.616c1.045-3.777 2.412-7.473 4.02-11.089.241-.563.804-1.206 1.286-.965.482.242.482.965.321 1.447-.803 3.375-1.607 6.83-2.411 10.205a18.572 18.572 0 0 1 9.325 1.447c.241.08.402.401.241.643 0 .08-.08.16-.16.241a10.384 10.384 0 0 1-5.949 1.607c-.724-.081-1.608-.161-2.171.402a2.638 2.638 0 0 0-.563 1.285c-.723 2.973-1.768 5.786-3.215 8.438-.161.241-.483.402-.804.241a.443.443 0 0 1-.242-.402c-.562-2.652.563-5.625.483-8.437 0-.322-.081-.643-.241-.884-.242-.322-.644-.483-1.045-.483-2.975-.642-5.949-1.526-8.763-2.651-.804-.322-1.688-1.125-1.126-1.768.161-.161.402-.241.724-.322a15.182 15.182 0 0 1 5.386 0l4.904 1.045ZM300.988 78.027c-2.894 2.732-2.17 8.518 2.814 7.151 7.316-2.089 2.171-11.812-2.814-7.151ZM362.488 358.071c-3.698 3.536-2.813 10.929 3.538 9.161 9.405-2.652 2.813-15.187-3.538-9.161ZM376.396 324.321c-1.849 1.768-1.367 5.465 1.769 4.581 4.743-1.286 1.447-7.554-1.769-4.581ZM410.643 330.027c-1.688-4.822-2.974-9.723-3.939-14.706-.161-.803-.08-1.848.723-2.009.804-.16 1.206.643 1.448 1.367 1.607 4.178 3.296 8.437 4.903 12.616a25.42 25.42 0 0 1 10.934-5.384c.321-.081.723.16.723.482 0 .161 0 .241-.08.402a12.944 12.944 0 0 1-5.145 6.026c-.804.483-1.769 1.045-2.01 2.009-.08.643.08 1.286.322 1.849 1.447 3.616 2.331 7.473 2.813 11.33 0 .402-.241.804-.643.804-.241 0-.402-.081-.563-.161-2.572-2.331-3.537-6.429-5.627-9.322-.241-.321-.563-.642-.884-.803-.483-.081-1.045 0-1.447.241-3.618 1.446-7.396 2.732-11.255 3.616-1.045.241-2.653 0-2.492-1.045.08-.321.241-.562.482-.803 1.608-1.688 3.537-2.973 5.708-3.938l6.029-2.571ZM429.776 295.312c-1.849 1.768-1.366 5.465 1.769 4.581 4.743-1.366 1.447-7.554-1.769-4.581ZM79.83 335.25c.321-3.616.964-7.152 1.768-10.607.16-.563.482-1.206 1.045-1.045.563.161.563.804.563 1.286-.16 3.214-.322 6.428-.563 9.562a17.642 17.642 0 0 1 8.683-.241c.24.081.401.241.401.482 0 .081-.08.242-.16.322-1.367 1.286-3.216 2.17-5.065 2.411-.724 0-1.367.241-1.85.723-.24.402-.32.803-.32 1.286-.161 2.732-.644 5.464-1.528 8.035-.08.241-.402.402-.643.322a.63.63 0 0 1-.322-.322c-.965-2.25-.402-5.143-.884-7.634 0-.321-.16-.562-.322-.803-.321-.241-.643-.322-1.045-.322-2.813-.08-5.547-.401-8.36-.884-.724-.16-1.689-.803-1.287-1.366.16-.16.322-.321.563-.401 1.527-.563 3.216-.884 4.823-.804h4.502Z" fill="#fff"/></svg>