<svg width="75" height="36" fill="none" xmlns="http://www.w3.org/2000/svg"><path d="M5.506 7.734c5.85 4.937 12.928 8.185 20.462 9.356 7.936 1.233 16.93 1.175 24.061-.567 4.886-1.198 5.58-1.417 6.805-2.18-2.11-2.62-9.02-7.051-8.626-12.427.084-1.18 1.437-1.791 2.37-1.08 5.889 4.49 18.14 11.849 23.322 16.45.544.483 1.137 1.073 1.101 1.806-.03.71-.636 1.233-1.194 1.666a205.587 205.587 0 0 1-22.173 14.933c-1.056.616-2.462.286-3.037-.804-.504-.948.035-1.68.544-2.333 2.405-3.087 4.81-6.175 7.215-9.267-12.362 5.277-26.807 5.05-39.169-.138-6.937-2.909-12.702-8.15-16.085-14.92C-.71 4.594-.923 2.31 5.506 7.735Z" fill="#FBC8B8"/></svg>