<svg width="300" height="395" fill="none" xmlns="http://www.w3.org/2000/svg"><g clip-path="url(#a)"><path d="M-166 507.954c49.79-20.92 95.309-50.132 134.441-86.279 22.125-20.455 42.028-42.966 61.414-65.862 13.69-16.15 27.237-32.719 36.903-51.393 8.928-17.264 14.36-35.938 19.194-54.623a1036.1 1036.1 0 0 0 20.089-95.791c6.148-38.299 10.056-77.97-.401-115.389-3.56-12.748-9.766-26.175-22.13-31.95-17.735-8.299-38.644 2.929-53.12 15.805C9.73 40.85-6.537 63.25-22.23 85.699c-53.293 76.238-103.103 158.028-117.254 248.818" fill="#194429"/><path d="M-36.415 346.964A690.873 690.873 0 0 0 32.397 223.85a687.571 687.571 0 0 0 24.602-65.756 689.019 689.019 0 0 0 17.75-67.755 680.224 680.224 0 0 0 10.703-69.293c.29-2.896.566-5.798.826-8.705.325-3.67-5.654-3.637-5.98 0a666.72 666.72 0 0 1-9.76 68.741 681.946 681.946 0 0 1-16.796 67.388 695.66 695.66 0 0 1-23.678 65.773A681.594 681.594 0 0 1-.052 277.031a703.695 703.695 0 0 1-36.497 59.78 766.515 766.515 0 0 1-5.037 7.285c-2.152 3.063 3.03 5.925 5.17 2.868Z" fill="#153A23"/><path d="M74.255 91.453c7.02-11.139 8.26-13.823 17.164-23.592 1.053-1.164 12.953-13.583 11.755-14.725-1.094-1.047-10.55 6.327-11.633 7.496-9.23 10.125-15.186 16.38-22.462 27.936-1.983 3.163 3.187 6.037 5.177 2.885ZM56.586 160.244c8.236-15.271 11.58-21.013 21.997-34.936.948-1.259 13.994-15.36 12.69-16.09-1.511-.841-8.142 4.818-9.346 5.881-20.299 18.156-22.27 26.972-30.512 42.249-1.762 3.285 3.397 6.181 5.17 2.896ZM39.126 207.733A620.429 620.429 0 0 1 74.5 156.228c3.56-4.656 3.49-4.7 7.189-9.256.988-1.219 7.346-10.403 6.107-11.589-1.036-.986-11.167 8.654-12.162 9.885-13.4 16.502-20.432 26.71-32.012 44.409a575.757 575.757 0 0 0-9.655 15.182c-1.978 3.186 3.21 6.065 5.159 2.874ZM20.1 248.717c15.17-11.139 34.601-28.47 46.967-42.438 19.618-22.171 1.745-10.827-4.24-4.049-12.028 13.572-26.528 24.984-41.295 35.805-1.28.935-1.955 2.473-1.065 3.898.739 1.209-1.686 4.294-.395 3.342l.029 3.442Z" fill="#153A23"/><path d="M-87.243 421.948c25.248-5.252 48.571-16.507 69.27-31.138 20.823-14.702 38.911-32.747 54.917-52.167 19.09-23.184 35.253-48.396 51.468-73.458 15.483-23.948 30.826-48.38 49.589-70.139 15.076-17.476 33.868-34.062 57.115-40.483a85.435 85.435 0 0 1 8.725-1.905l-4.019-1.854c3.873 6.683-1.96 14.023-6.846 18.807-3.571 3.492-7.608 6.516-11.504 9.657l-13.913 11.2c-18.15 14.621-36.309 29.242-54.474 43.863-10.19 8.209-15.541 13.038-25.737 21.241-1.385 1.114-6.427 6.555-5.427 7.942.937 1.287 3.112 2.161 4.653 1.181 23.767-15.187 52.803-20.851 80.88-15.778-.744-2.038-1.489-4.071-2.233-6.126-23.85 20.274-51.226 36.388-80.886 47.611a275.051 275.051 0 0 1-25.318 8.182l4.409 3.592c4.408-23.129 1.221-47.394-8.556-68.931a113.293 113.293 0 0 0-9.823-17.348c-1.774-2.578-5.421-2.462-6.73.473-9.405 21.359-12.843 44.695-9.975 67.711 2.431 19.604 10.848 42.884 34.02 46.509 10.87 1.671 21.764-1.671 32.622-.401 6.91.797 15.245 4.456 17.821 10.843.989 2.462.512 5.976-1.006 8.215a10.57 10.57 0 0 1-2.978 2.824 18.011 18.011 0 0 1-4.531 1.932 38.376 38.376 0 0 1-11.929 1.114c-4.071-.173-8.142-.557-11.923-1.671a11.308 11.308 0 0 1-.773-.278c-.582-.223.436.295-.274-.162a30.07 30.07 0 0 1-1.803-1.191c-.581-.424 0 .044-.448-.351a30.303 30.303 0 0 1-.773-.708 34.926 34.926 0 0 1-1.925-1.988 101.737 101.737 0 0 1-7.05-9.044c-4.199-5.854-8.334-12.687-14.54-16.819a14.214 14.214 0 0 0-4.234-1.95c-4.52-1.147-6.846 5.475-2.292 6.644.303.078.582.173.902.268.32.094 1.058.518.279.094.625.335 1.227.707 1.803 1.114 1.14.877 2.19 1.854 3.14 2.919a94.368 94.368 0 0 1 7.306 9.311c4.28 5.959 8.503 13.083 14.953 17.159 3.286 2.089 7.364 2.596 11.19 3.125a61.15 61.15 0 0 0 13.616.367c8.294-.724 17.048-4.121 20.113-12.141 3.222-8.432-1.542-16.674-8.911-21.33a35.3 35.3 0 0 0-12.15-4.728c-5.356-1.019-10.736-.713-16.151-.301-10.714.819-21.991 2.083-30.995-4.728-7.683-5.82-11.632-15.472-13.825-24.338-5.461-22.154-3.397-46.286 4.397-67.677 1-2.733 2.092-5.434 3.274-8.104l-6.729.474c12.972 18.891 19.772 41.054 19.531 63.662a109.642 109.642 0 0 1-1.937 19.108c-.413 2.172 2.327 4.155 4.409 3.598 31.682-8.596 61.537-22.466 88.197-40.973a271.324 271.324 0 0 0 21.31-16.407c2.624-2.228.739-5.57-2.227-6.127-22.619-4.043-46.379-1.197-67.468 7.597-5.956 2.489-9.021 3.898-14.436 7.368 1.35 1.916.07 5.391 1.413 7.307 18.895-15.223 37.794-30.445 56.697-45.668l28.342-22.834 14.448-11.634c3.989-3.219 8.142-6.31 11.702-9.958 6.816-6.934 13.267-16.98 7.788-26.448a3.71 3.71 0 0 0-1.693-1.557 3.929 3.929 0 0 0-2.326-.298c-24.696 4.105-45.454 18.936-62.083 36.2-19.286 20.077-34.588 43.507-49.635 66.553-16.477 25.301-32.408 50.964-50.816 75.001-15.576 20.322-33.1 39.324-53.51 55.291-19.425 15.199-41.626 27.579-65.88 34.095a168.606 168.606 0 0 1-9.096 2.161c-4.612.936-3.112 7.78 1.489 6.828Z" fill="#1F7A36"/><path d="M-3.996 477.385c7.794 14.747 15.89 29.294 28.197 40.043 15.495 13.533 34.03 24.46 55.65 26.381 21.619 1.921 46.686-6.516 62.617-25.268 3.211-3.781 6.142-8.275 6.334-12.87.407-9.696-10.388-13.088-18.67-16.363-8.282-3.274-15.733-14.034-8.329-21.424l47.274 15.037c12.139 3.859 24.963 7.741 38.474 4.561 13.511-3.18 27.517-16.151 27.232-29.768-.582-28.687-52.346-18.74-59.605-45.3 12.255-5.296 25.01-2.846 36.555.278 11.545 3.125 23.48 6.851 36.061 3.821 12.58-3.03 25.672-15.783 24.288-28.231-2.251-20.088-37.101-22.137-32.675-43.061 1.576-7.457 8.015-13.45 12.284-20.172 9.387-14.808 15.058-46.035-4.712-58.226-12.557-7.781-35.979-3.954-47.483 9.412-12.15 14.084-13.796 32.925-22.433 56.594-4.072 11.222-15.907 5.258-20.316-4.132-1.396-2.974-1.216-6.683-1.21-10.214 0-16.574-7.52-34.574-23.602-34.791-15.995-.217-30.233 17.604-34.804 34.201-4.572 16.596-3.048 33.337-6.805 50.023-.756 3.341-1.838 6.922-4.34 9.517-6.78 7.04-17.32 1.148-19.85-7.022-2.53-8.17-1.28-18.117-5.502-25.279-4.926-8.354-16.512-10.476-26.795-7.062-10.283 3.414-19.298 11.328-26.69 20.033-15.042 17.754-24.784 39.87-27.116 61.568 0 .016 3.402 33.944 15.971 57.714Z" fill="#198C36"/><path d="M129.434 106.679c-2.687-7.797-6.317-21.993-7.497-30.135-.215-1.582 0-3.732 1.64-3.993 1.501-.262 2.495 1.414 3.019 2.784 3.272 8.629 6.52 17.272 9.742 25.931 6.926-5.247 15.083-8.799 23.765-10.348.242-.04.491-.015.72.072.229.085.429.23.579.416a1.256 1.256 0 0 1 .161 1.328c-2.401 5.05-6.383 9.26-11.394 12.046-1.815.997-3.92 2.033-4.426 3.971-.326 1.253.174 2.539.622 3.748a86.668 86.668 0 0 1 5.269 23.229c.015.307-.067.611-.235.872a1.573 1.573 0 0 1-.707.593 1.656 1.656 0 0 1-1.768-.306c-5.363-4.951-7.107-13.183-11.51-19.27a4.06 4.06 0 0 0-1.896-1.671c-1.03-.345-2.17 0-3.188.39a175.086 175.086 0 0 1-24.364 6.8c-2.239.44-5.624-.128-5.199-2.228a3.149 3.149 0 0 1 1.128-1.631 38.652 38.652 0 0 1 12.522-7.675l13.017-4.923Z" fill="#FBC8B8"/><path d="M160.789 41.44c-5.264 4.768-3.967 14.848 5.049 12.431 13.301-3.58 3.96-20.595-5.049-12.43ZM273.629 323.328c-5.234 4.773-3.96 14.848 5.049 12.431 13.296-3.581 3.99-20.59-5.049-12.431ZM288.519 348.574c-2.478 2.122-1.861 6.599 2.379 5.53 6.264-1.571 1.861-9.156-2.379-5.53Z" fill="#F7BC28"/></g><defs><clipPath id="a"><path fill="#fff" d="M0 0h300v400H0z"/></clipPath></defs></svg>