<svg width="492" height="510" fill="none" xmlns="http://www.w3.org/2000/svg"><path d="M316.835 479.806c-146.769 38.923-227.856 6.209-250.052-14.999-99.235-94.846-61.206-197.071-45.108-224.592 21.239-36.328 61.163-90.9 84.64-128.594C167.641 6.475 251.7 3.049 286.091 14.521 437.344 45.04 484.152 173.659 488.644 234.15c21.085 161.948-105.786 231.246-171.809 245.656Z" fill="#F7BC28"/><path d="M190.596 207.697a370.146 370.146 0 0 1-70.617-2.067c-11.956-1.504-26.841-6.543-26.09-16.357.666-8.653 13.135-12.813 23.519-14.854a850.816 850.816 0 0 1 246.56-11.104c13.826 1.392 28.694 3.579 38.285 11.787 4.014 3.417 6.9 8.354 5.124 12.864-2.067 5.287-9.352 7.773-15.859 9.472a497.787 497.787 0 0 1-130.663 15.836l-70.259-5.577Z" fill="#153A23"/><path d="M203.125 153.962c22.084-4.485 44.536-8.969 66.988-7.047 22.452 1.922 45.262 11.283 58.473 29.562 14.57 20.218 15.048 47.389 26.312 69.614 6.901 13.667 18.114 26.479 17.354 41.692-1.102 22.208-25.954 34.396-47.338 40.495a547.227 547.227 0 0 1-163.217 20.807c-5.927-.145-12.05-.435-17.396-3.006-9.454-4.51-14.492-15.52-14.8-25.967-.307-10.446 3.22-20.67 6.926-30.485a734.643 734.643 0 0 1 59.78-122.469" fill="#FAC7B7"/><path d="M213.125 171.352a221.964 221.964 0 0 0-11.58 88.021c1.016 14.367 3.629 29.144 11.315 40.795a46.778 46.778 0 0 0 44.195 20.636c16.653-2.058 31.897-13.316 41.112-28.768 13.467-22.584 14.057-51.488 12.246-78.454-1.622-23.976-6.985-51.446-26.337-62.456-15.219-8.653-33.588-3.767-50.079 1.324l-20.872 18.902Z" fill="#B26D55"/><path d="M189.734 230.05c22.896.094 49.097-10.361 54.861-15.87 17.379-16.596 19.044-42.708 18.524-65.531l-54.341 11.258-18.651 35.02s-.402 35.123-.393 35.123Z" fill="#FAC7B7"/><path d="M255.347 159.027s18.72 47.38 67.466 56.853l-7.686-28.427-16.678-28.426h-43.102Z" fill="#FAC7B7"/><path d="M89.995 499.46c-9.326-30.033 3.117-74.184 25.167-96.597 22.051-22.413 52.257-35.02 82.676-42.964 37.175-9.72 76.861-13.231 113.899-3.178 15.5 4.203 30.317 10.712 44.408 18.476 22.162 12.223 43.341 28.554 54.067 51.48 12.204 26.111 9.087 40.999 4.68 69.468" fill="#39B55D"/><path d="M279.046 211.831a2.943 2.943 0 0 0-3.117 1.64c-.137.29-.274.572-.385.854-.367.965-.333 2.289.59 2.768a2.69 2.69 0 0 0 1.221.213c4.319.103 8.614.676 12.81 1.708a62.757 62.757 0 0 1 6.328 1.879c.521.188 2.434 1.265 2.921 1.085.854-.324.435-1.896.077-2.443a6.139 6.139 0 0 0-2.05-1.708l-.214-.137a38.132 38.132 0 0 0-13.911-5.125l-4.27-.734Z" fill="#FAC7B7"/><path d="M226.166 160.018c-16.875 1.17-21.436 15.708-27.414 29.331-6.678 15.204-18.463 31.493-26.568 45.971-7.934 14.162-15.807 28.435-21.82 43.562a153.828 153.828 0 0 0-7.242 22.994c-1.562 6.953-1.255 8.627-2.194 15.793-1.059 8.158-.709 17.707 7.464 19.219 8.172 1.512 22.802 1.119 30.821 2.195 1.503.205 2.16-2.101.64-2.306-11.623-1.555-30.881 3.417-35.492-11.497-2.118-6.833-.718-14.384.734-21.217 1.554-7.355 17.319-35.405 19.975-42.435 10.88-28.768 19.019-33.5 32.136-61.2 6.833-14.521 9.702-36.661 28.96-38.002 1.52-.102 1.537-2.494 0-2.391v-.017Z" fill="#fff"/><path d="M213.971 333.531c-7.422-.683-19.771-2.682-26.662-5.518-6.038-2.477-12.682-5.979-16.124-11.796-5.876-9.908-4.91-25.488 2.989-34.089 1.033-1.128 1.401-3.878.359-2.742-6.832 7.44-10.445 15.606-9.232 25.377.854 6.569.547 12.992 4.074 16.366 4.329 4.151 13.143 7.619 18.694 9.746 6.712 2.562 15.722 3.485 22.861 4.151 1.538.137 9.394-1.35 7.857-1.495h-4.816Z" fill="#fff"/><path d="M189.35 265.438c-3.527 9.592-7.481 25.419-5.252 33.252 1.298 4.561 9.974 11.446 16.909 17.22 1.178.982 3.749 1.708 2.562.7-6.602-5.492-13.895-11.574-16.226-20.218-2.562-9.763.196-22.583 3.569-31.766.53-1.443-1.067-.623-1.597.812h.035ZM196.361 220.048c8.54-1.264 16.645-4.391 24.536-7.867 7.284-3.212 18.976-8.644 24.766-14.213 5.79-5.569 7.122-15.067 9.684-22.567 2.818-8.097 2.357-12.573 2.417-21.14 0-1.538-1.708-5.698-1.708-4.151 0 24.061-5.201 37.873-16.978 48.644-5.568 5.125-12.571 8.345-19.411 11.36-7.686 3.417-15.603 6.398-23.964 7.628-1.52.222-.854 2.562.632 2.306h.026ZM212.348 194.141c2.041-7.559 11.418-15.195 16.841-20.944 5.884-6.244 7.174-8.353 14.339-13.043 1.289-.854.094-2.904-1.204-2.058-7.687 5.014-15.099 10.796-21.265 17.595-5.483 6.048-8.967 12.471-9.437 16.4-.188 1.529-.982 5.527 0 5.877l.726-3.827Z" fill="#fff"/><path d="M231.956 186.77c7.515-9.532 16.03-21.354 14.74-29.041-.248-1.495-2.092-2.153-2.306-.632-1.665 11.958-9.513 23.916-16.781 33.141-.939 1.196 1.033.794 1.981-.41l2.366-3.058ZM328.219 216.179c-27.029-7.201-48.678-30.161-54.297-57.545l-1.153 1.512c17.174-1.58 32.264 9.267 42.094 22.49 11.307 15.204 15.927 34.072 22.084 51.676a229.2 229.2 0 0 0 11.435 26.351c4.228 8.482 8.54 17.784 7.43 27.521-1.879 16.272-18.182 25.531-32.11 30.51-21.41 7.688-44.648 11.028-67.322 11.233-1.537 0-5.124 3.621-3.561 3.604 21.692-.196 40.523-2.75 61.224-9.31 14.193-4.51 38.43-15.734 44.066-30.605 3.322-8.772 3.673-16.485.222-24.915-3.902-9.533-12.878-18.561-16.584-28.188-7.157-18.637-14.518-47.029-19.642-53.051-11.957-14.025-29.891-31.484-49.311-29.699a1.22 1.22 0 0 0-1.153 1.512c8.173 39.24 28.183 51.813 55.972 59.218a1.192 1.192 0 0 0 1.449-.842 1.199 1.199 0 0 0-.817-1.464l-.026-.008Z" fill="#fff"/><path d="M252.358 322.137c16.892 1.426 44.109-.163 60.25-6.125 13.066-4.834 15.987-12.009 21.734-25.061 3.229-7.328 5.449-6.628-.153-23.062-.496-1.452-2.989-1.956-2.195-.632 7.686 12.864-2.297 30.357-12.272 38.591-11.247 9.285-25.74 13.402-40.078 14.461-9.096.535-18.219.352-27.286-.547-1.529-.128-1.52 2.264 0 2.392v-.017Z" fill="#fff"/><path d="M343.805 295.752c6.926-9.029 4.364-15.179 1.87-25.992-2.921-12.667-10.47-23.677-17.405-34.44-.854-1.29-2.903-.094-2.066 1.205 6.576 10.207 13.664 20.499 16.807 32.458 2.809 10.617 3.535 19.321-2.52 30.271-.743 1.341-1.144 3.656-.222 2.451l3.536-5.953ZM295.485 303.226c10.658-3.084 20.214-16.571 24.519-26.624 5.286-12.326-.854-19.603-3.818-32.407-.35-1.495-2.647-.854-2.306.641 2.81 12.06 3.596 25.171-1.161 36.865-3.928 9.66-12.417 16.152-21.888 20.858a17.313 17.313 0 0 0-2.741 2.358l7.395-1.691ZM290.933 178.638c5.124 1.529 9.002 5.347 12.631 9.106 3.758 3.903 12.34 14.179 15.509 18.569 6.183 8.542 6.106 11.779 9.821 21.653.538 1.426 2.852.803 2.306-.641a120.996 120.996 0 0 0-16.073-29.63c-3.279-4.408-3.074-6.33-6.917-10.25-3.698-3.759-8.6-7.688-13.758-9.251-1.478-.444-4.953 0-3.484.436l-.035.008Z" fill="#fff"/><path d="M205.815 228.624c-10.248 1.665-13.903 1.546-23.272 6.286-6.721 3.417-13.783 8.345-14.876 15.802-1.401 9.592 8.224 17.587 17.737 19.441 9.514 1.853 19.36-.239 29.036.546M307.697 213.317c8.67-.87 17.423.273 25.578 3.34 8.13 3.066 15.03 11.292 13.553 19.859-1.589 9.208-11.367 14.35-20.18 17.442a193.867 193.867 0 0 1-25.304 7.013M234.655 317.003l7.028 36.669h21.512l7.789-47.482-36.329 10.813Z" fill="#B26D55"/><path d="M207.335 368.569a60.391 60.391 0 0 1 3.672-26.479 5.267 5.267 0 0 1 1.486-2.392 5.494 5.494 0 0 1 3.416-.769c24.143 0 46.381-1.998 70.524-2.041 3.143 0 8.275 1.913 11.213 3.032 5.124 1.939 8.54 7.004 9.889 12.292 1.35 5.287 1.051 10.856.709 16.314" fill="#39B55D"/><path d="M213.612 284.955a.783.783 0 0 1-1.068 0c-2.451-2.152-5.294-3.826-7.839-5.876-2.733-2.213-5.21-5.048-5.825-8.542-1.153-6.491 5.483-10.882 10.872-6.714a19.765 19.765 0 0 1 3.809 4.271.186.186 0 0 0 .225.087.189.189 0 0 0 .125-.206 6.931 6.931 0 0 1 1.648-5.125c2.041-2.443 6.354-4.519 9.633-3.912 4.62.854 4.509 6.175 3.245 9.677-1.537 4.22-5.875 7.935-9.061 10.908l-5.764 5.432ZM298.158 281.018a.795.795 0 0 1-1.067-.12c-2.178-2.426-4.817-4.407-7.106-6.739-2.459-2.511-4.594-5.621-4.808-9.123-.401-6.577 6.696-10.181 11.572-5.424a19.587 19.587 0 0 1 3.288 4.681.195.195 0 0 0 .321.03.189.189 0 0 0 .046-.115 6.946 6.946 0 0 1 2.229-4.886c2.306-2.195 6.832-3.758 10.018-2.776 4.492 1.375 3.766 6.645 2.109 9.977-2.007 4.023-6.747 7.217-10.248 9.805l-6.354 4.69Z" fill="#F1673C"/><path d="M268.029 293.531a32.211 32.211 0 0 0 17.746-18.433 1.71 1.71 0 0 0-.416-2.077 1.718 1.718 0 0 0-2.116-.076 1.703 1.703 0 0 0-.696 1.299 28.524 28.524 0 0 1-15.372 16.092 1.709 1.709 0 0 0-1.17 2.059 1.71 1.71 0 0 0 2.058 1.17l-.034-.034ZM269.37 233.526c1.443 6.142 7.259 11.335 13.809 9.84 6.081-1.383 8.719-7.849 10.47-13.145l-2.434.999 11.897 6.073c1.912.974 3.612-1.913 1.708-2.887l-11.897-6.073a1.706 1.706 0 0 0-2.086.344 1.703 1.703 0 0 0-.373.656c-1.29 3.894-3.041 9.054-7.302 10.574-5.03 1.794-9.445-2.691-10.521-7.269-.496-2.093-3.724-1.204-3.228.854l-.043.034Z" fill="#010101"/><path d="m288.764 237.456.419.316c.222.17.051.042-.069-.06l.282.222 1.025.854 2.366 1.956c1.486 1.239 2.963 2.503 4.526 3.639a1.709 1.709 0 0 0 2.289-.607 1.709 1.709 0 0 0-.598-2.289l-.427-.307c-.222-.171-.043-.043.077.051l-.291-.222-1.025-.854c-.794-.649-1.579-1.307-2.365-1.965-1.486-1.23-2.955-2.494-4.526-3.63a1.706 1.706 0 0 0-2.289.598 1.71 1.71 0 0 0 .606 2.289v.009ZM240.069 237.831c-1.076 4.579-5.491 9.054-10.521 7.261-4.27-1.512-5.978-6.68-7.311-10.575a1.705 1.705 0 0 0-2.451-.999l-11.904 6.073c-1.922.982-.231 3.869 1.708 2.887l11.896-6.064-2.451-1.008c1.759 5.312 4.389 11.753 10.47 13.154 6.55 1.503 12.366-3.716 13.809-9.84.495-2.093-2.733-2.99-3.228-.854l-.017-.035Z" fill="#010101"/><path d="M222.212 239.77c-1.563 1.136-3.032 2.401-4.518 3.639l-2.366 1.956-1.024.854-.257.197c-.102.077.351-.265.043 0l-.427.316a1.71 1.71 0 0 0-.598 2.289 1.708 1.708 0 0 0 2.289.598c1.563-1.136 3.04-2.4 4.518-3.63l2.374-1.965 1.025-.854.247-.197.419-.307a1.709 1.709 0 0 0-1.708-2.896h-.017ZM318.834 225.344a24.123 24.123 0 0 1 9.24.854c2.946.743 5.978 1.708 7.686 4.39a5.12 5.12 0 0 1 .658 4.604 12.14 12.14 0 0 1-2.631 4.057 19.92 19.92 0 0 1-6.883 4.391c-2.989 1.247-6.098 2.203-9.07 3.519-1.4.615-.187 2.682 1.205 2.058 5.858-2.562 12.81-3.843 17.08-9.028 2.382-2.887 3.885-6.406 2.135-10.002-1.614-3.297-4.766-4.92-8.13-5.911a28.257 28.257 0 0 0-11.956-1.239c-1.521.222-.854 2.563.631 2.307h.035Z" fill="#010101"/><path d="M320.96 239.096a11.65 11.65 0 0 0 2.682-1.025 16.587 16.587 0 0 0 3.262-2.008 4.212 4.212 0 0 0 1.819-2.887c.077-1.58-1.358-2.502-2.639-3.023a19.467 19.467 0 0 0-5.816-1.051 1.193 1.193 0 0 0-1.187 1.196 1.225 1.225 0 0 0 1.17 1.178l1.017.086.58.06h.675l.342.051.563.102c.404.076.803.173 1.196.291l.512.171.197.077c-.248-.094.059 0 .094 0 .034 0 .299.153.435.23l.205.137c.282.162-.102-.111 0 0l.214.205c.162.145-.146-.248-.052-.068l.06.093c.154.231-.085-.273 0 0 .086.274 0-.264 0 0a.89.89 0 0 0 0 .146s.086-.316 0-.18a.808.808 0 0 0-.068.231c-.043.196.145-.265 0-.094 0 0-.043.077-.06.12-.017.042-.111.17-.171.264-.06.094.197-.23.043-.059l-.103.119c-.068.086-.145.162-.213.239-.068.077-.401.35-.598.53-.06.043-.162.145.068-.051l-.179.128a4.244 4.244 0 0 1-.316.222c-.111.068-.478.316-.717.461-.47.282-.948.538-1.435.777l-.786.368-.128.051c.359-.111.069 0 0 0l-.341.128a6.551 6.551 0 0 1-1.051.325 1.19 1.19 0 0 0-.885 1c-.02.157-.01.316.031.469a1.221 1.221 0 0 0 1.469.854l.111.137ZM196.071 261.321a29.706 29.706 0 0 1-12.4-1.059c-2.878-.855-8.489-2.614-7.686-6.586.358-1.853 1.708-3.417 2.989-4.723a28.262 28.262 0 0 1 4.27-3.554 29.878 29.878 0 0 1 10.435-4.475c1.504-.334.854-2.64-.631-2.307-6.508 1.435-13.067 5.006-17.234 10.301-1.999 2.563-3.288 6.056-1.153 8.935 1.964 2.639 5.773 3.938 8.805 4.826a31.335 31.335 0 0 0 12.647 1.033c1.503-.188 1.521-2.562 0-2.391h-.042Z" fill="#010101"/><path d="M191.109 245.997a14.433 14.433 0 0 0-4.646 1.324 10.592 10.592 0 0 0-3.664 2.725 4.075 4.075 0 0 0-.495 4.442 5.517 5.517 0 0 0 3.314 2.767c1.853.581 3.826.29 5.704 0a1.205 1.205 0 0 0 .854-1.469 1.229 1.229 0 0 0-1.468-.854c-1.546.23-3.254.495-4.74-.111.136.051-.248-.129-.291-.154a4.631 4.631 0 0 1-.427-.282c.077.051.052 0-.059-.06l-.188-.179s-.308-.333-.231-.239a4.542 4.542 0 0 1-.273-.427 1.915 1.915 0 0 1-.111-.222v-.06a2.841 2.841 0 0 1-.128-.47V252.403c0-.085 0-.162.051-.247.039-.121.094-.235.162-.342.168-.276.379-.524.624-.735a9.805 9.805 0 0 1 1.802-1.298 11.42 11.42 0 0 1 4.27-1.418 1.227 1.227 0 0 0 1.195-1.196 1.203 1.203 0 0 0-1.195-1.195l-.06.025Z" fill="#010101"/><path d="M257.098 250.012c2.084 5.355 4.466 10.711 6.157 16.066a2.052 2.052 0 0 1-.316 1.813 2.064 2.064 0 0 1-1.64.835l-7.686.06a2.055 2.055 0 0 1-1.523-.692 2.05 2.05 0 0 1-.501-1.597l1.538-15.99a2.057 2.057 0 0 1 3.971-.495Z" fill="#C05929"/><path d="m188.402 166.877 128.006-4.613-22.144-56.895h-83.299l-22.563 61.508ZM213.783 340.057a487.505 487.505 0 0 1 82.958-1.572c1.528.103 1.528-2.289 0-2.391a487.505 487.505 0 0 0-82.958 1.571c-1.52.154-1.529 2.563 0 2.392ZM93.308 495.633c-5.346-3.365-8.07-10.472-5.858-16.451 2.212-5.979 9.198-9.797 15.534-8.627v-2.298c-9.599 3.203-16.9-8.054-16.806-16.425.05-4.912 1.759-10.105 5.5-13.453 3.74-3.348 9.146-4.578 13.749-2.563 1.392.624 2.562-1.443 1.204-2.067a15.38 15.38 0 0 0-15.372 1.862c-4.834 3.571-7.225 9.576-7.473 15.452-.435 10.079 8.361 23.293 19.805 19.466 1.024-.341 1.246-2.075 0-2.297-7.422-1.376-15.372 2.562-18.233 9.677-2.861 7.115.256 15.768 6.72 19.8 1.307.854 2.511-1.247 1.205-2.059l.025-.017ZM145.377 396.764a11.838 11.838 0 0 1-9.59-8.422c-1.444-4.757.546-9.609 4.44-12.547 8.668-6.526 20.069-.094 21.598 9.959l.854-1.469c-3.467.632-6.371-2.793-6.55-6.039-.179-3.245 2.502-5.68 5.389-6.577 7.395-2.272 12.963 4.45 14.595 10.942.375 1.486 2.681.854 2.305-.641-1.178-4.68-3.843-9.224-8.181-11.608a12.147 12.147 0 0 0-12.101.231c-3.416 2.144-5.269 6.133-3.937 10.079 1.332 3.946 4.962 6.68 9.112 5.919a1.21 1.21 0 0 0 .854-1.469 17.378 17.378 0 0 0-10.043-13.171 15.243 15.243 0 0 0-15.773 2.238 13.82 13.82 0 0 0-5.022 14.521c1.46 5.261 5.893 9.626 11.384 10.369 1.503.197 2.152-2.101.632-2.306l.034-.009ZM327.083 368.774c11.154-4.339 24.63 5.586 23.733 17.544l1.196-1.196c-3.16-.299-5.38-3.015-6.055-5.979-.743-3.288.683-6.449 3.057-8.704 5.935-5.637 14.774-4.569 22.204-3.544 1.503.205 2.152-2.093.632-2.307-9.027-1.247-20.376-2.229-26.346 6.313-4.27 6.047-1.469 15.87 6.533 16.621a1.212 1.212 0 0 0 1.196-1.195c.999-13.411-14.219-24.728-26.764-19.851-1.418.555-.803 2.861.64 2.306l-.026-.008ZM376.009 391.887c3.194-1.751 6.977.581 8.54 3.477 2.195 4.006.931 9.105-.094 13.265a1.209 1.209 0 0 0 .85 1.466c.203.055.416.056.619.003 8.412-2.563 17.371 6.833 14.518 15.084-.504 1.461 1.802 2.093 2.298.641 3.416-10.002-7.396-21.098-17.473-18.031l1.469 1.469c1.281-5.202 2.562-11.566-.854-16.229-2.562-3.417-7.148-5.347-11.103-3.186-1.349.734-.145 2.801 1.205 2.058l.025-.017ZM420.426 440.096c4.355-.496 7.746 3.416 7.951 7.542.213 4.339-2.272 8.413-4.996 11.574a35.874 35.874 0 0 1-19.335 11.497c-1.298.29-1.033 2.434.316 2.34 5.44-.359 10.197 4.117 9.249 9.686a8.97 8.97 0 0 1-1.187 3.203c-.547.855-1.708 1.546-2.144 2.418-.435.871.069 2.408.188 3.314l.581 4.51c.196 1.503 2.562 1.52 2.391 0l-.41-3.161c-.111-.854-.606-2.331-.41-3.16.248-1.008 1.281-1.777 1.862-2.716a11.285 11.285 0 0 0 1.503-7.636c-.939-5.45-6.183-9.208-11.623-8.867l.325 2.341c9.351-2.11 18.344-7.841 23.365-16.152 2.34-3.87 3.707-8.755 1.836-13.086-1.605-3.733-5.295-6.543-9.462-6.065-1.512.18-1.529 2.563 0 2.392v.026Z" fill="#153A23"/><path d="M401.928 427.591c4.1-1.555 9.625-2.563 13.357.478 2.562 2.076 4.15 6.526 1.708 9.311-1.008 1.153.675 2.852 1.708 1.708 2.451-2.819 2.306-6.833.512-9.96-2.118-3.715-6.242-5.381-10.393-5.347a21.707 21.707 0 0 0-7.532 1.529c-1.426.547-.812 2.853.632 2.307l.008-.026ZM210.666 365.109a33.94 33.94 0 0 1 3.586-24.275 1.196 1.196 0 0 0-2.058-1.213 36.47 36.47 0 0 0-3.817 26.12c.35 1.504 2.656.855 2.306-.632h-.017ZM222.741 361.624a16.39 16.39 0 0 1 2.639-14.888 1.214 1.214 0 0 0-.435-1.64 1.233 1.233 0 0 0-1.632.436 18.636 18.636 0 0 0-2.878 16.724c.47 1.461 2.776.855 2.306-.632ZM238.412 365.477c.718-4.271-.094-8.884-.683-13.103-.589-4.22-1.127-8.883-2.776-12.881-.58-1.409-2.895-.794-2.305.632 1.571 3.81 2.101 8.2 2.681 12.249.359 2.434.641 4.877.794 7.337a22.408 22.408 0 0 1 0 5.125c-.247 1.503 2.05 2.152 2.306.632l-.017.009ZM246.713 344.704a64.544 64.544 0 0 1-.657 16.177c-.257 1.504 2.049 2.153 2.305.632a67.125 67.125 0 0 0 .743-16.809c-.128-1.521-2.519-1.529-2.391 0ZM261.12 361.377a31.62 31.62 0 0 0 1.367-12.445 29.362 29.362 0 0 0-3.024-12.061c-.726-1.358-2.792-.154-2.058 1.204 1.819 3.417 2.494 7.397 2.716 11.207a29.575 29.575 0 0 1-1.307 11.463c-.512 1.452 1.794 2.075 2.306.632ZM267.816 342.765a27.023 27.023 0 0 1 3.27 18.928c-.299 1.503 2.007 2.144 2.306.632a29.61 29.61 0 0 0-3.527-20.765 1.198 1.198 0 0 0-1.635-.431 1.2 1.2 0 0 0-.432 1.636h.018ZM296.963 341.569a30.473 30.473 0 0 1 4.5 19.594c-.162 1.529 2.229 1.521 2.391 0a32.578 32.578 0 0 0-4.808-20.799c-.854-1.298-2.886-.102-2.066 1.205h-.017ZM288.363 361.368a19.149 19.149 0 0 1 .35-17.126c.726-1.358-1.332-2.562-2.058-1.204a21.648 21.648 0 0 0-.35 19.535c.666 1.383 2.724.17 2.058-1.205Z" fill="#153A23"/><path d="M225.807 371.14a4407.944 4407.944 0 0 0 45.852-3.109l22.682-1.709c3.775-.29 7.552-.575 11.333-.854 2.903-.239 5.747-.512 8.258-2.101 1.289-.854.094-2.896-1.213-2.067-3.023 1.922-6.892 1.768-10.35 2.041l-10.394.854c-7.401.57-14.802 1.125-22.204 1.666a4681.921 4681.921 0 0 1-43.964 2.972c-1.52.094-1.537 2.486 0 2.384v-.077ZM107.92 433.732c-3.313-1.828-6.55-5.125-6.388-9.199.137-3.494 3.989-7.166 7.55-5.543.965.435 2.408-.556 1.64-1.64-1.179-1.64-2.357-3.972-1.367-5.98.777-1.563 3.023-2.331 4.27-.854.811.94 2.272-.068 1.999-1.161-.752-2.956-1.811-8.781 2.767-9.097 4.406-.299 6.609 4.339 8.181 7.687.529 1.128 2.203.496 2.229-.606l.23-8.542c0-1.05-.358-3.416.914-3.895 1.443-.504 2.827 1.435 3.57 2.349.973 1.196 2.656-.504 1.708-1.708-1.751-2.144-5.457-4.818-7.789-1.708-1.067 1.409-.734 3.707-.785 5.347l-.222 8.182 2.229-.597c-2.11-4.476-5.679-10.191-11.564-8.687-5.414 1.375-4.825 7.756-3.757 11.958l1.998-1.162c-1.896-2.195-5.32-1.759-7.233.214-2.562 2.69-1.35 6.884.563 9.549l1.632-1.631c-4.501-2.05-9.608 1.076-10.872 5.68-1.511 5.518 2.776 10.694 7.302 13.188 1.349.743 2.562-1.315 1.204-2.058l-.009-.086ZM178.547 371.105a13.481 13.481 0 0 1 19.667-7.267 13.486 13.486 0 0 1 5.304 5.841c.691 1.375 2.749.171 2.066-1.204a15.873 15.873 0 0 0-29.343 1.998c-.513 1.452 1.802 2.076 2.306.632ZM226.089 476.039c-1.708-2.563-3.237-5.928-1.665-8.935 1.656-3.169 4.97-2.605 7.429-.786 3.784 2.81 10.061 9.635 6.832 14.606l1.879-.239c-1.836-1.563-1.708-4.271-.418-6.15 1.469-2.178 4.227-3.04 6.678-3.51 4.048-.786 10.419-1.512 12.896 2.673a1.194 1.194 0 0 0 2.189-.297 1.194 1.194 0 0 0-.123-.907c-3.347-5.663-11.887-4.92-17.319-3.374-3.032.854-5.901 2.562-7.097 5.629-1.042 2.614-.717 5.74 1.503 7.627a1.228 1.228 0 0 0 .997.328 1.223 1.223 0 0 0 .882-.567c2.161-3.416 1.051-7.243-.939-10.429-2.084-3.348-5.184-7.021-8.848-8.661a6.526 6.526 0 0 0-8.642 2.853c-2.024 3.784-.504 8.003 1.665 11.343.854 1.29 2.904.094 2.067-1.204h.034ZM283.128 405.511a8.196 8.196 0 0 1 11.102 4.732 7.985 7.985 0 0 1 .427 3.263c-.06.803-.41 2.648-1.426 2.793-1.298.179-.803-1.572-.265-2.084a5.002 5.002 0 0 1 3.066-1.068c4.27-.299 8.147 2.725 10.051 6.329 2.409 4.536 2.178 10.037 1.452 14.965-.222 1.504 2.075 2.153 2.298.641.854-5.603 1.058-11.659-1.708-16.819-2.204-4.151-6.653-7.508-11.478-7.533-2.152 0-4.791.632-6.038 2.562-1.042 1.589-.854 4.058.939 5.065 2.033 1.171 4.091-.486 4.911-2.314a9.345 9.345 0 0 0-.197-7.056 10.524 10.524 0 0 0-5.683-5.736 10.547 10.547 0 0 0-8.075-.029c-1.409.581-.794 2.895.632 2.306l-.008-.017ZM193.406 404.981c5.867 1.35 12.161-3.647 12.016-9.711 0-1.538-2.425-1.546-2.391 0 .111 4.475-4.655 8.405-8.984 7.405-1.503-.35-2.135 1.956-.641 2.306ZM125.658 449.577c-2.75-2.153-7.447-.777-8.121 2.844-.735 3.938 3.936 6.927 7.327 5.125l-1.759-.709c.384 1.051-1.094 2.076-1.708 2.785a5.194 5.194 0 0 0-1.521 3.955c.299 3.109 3.305 5.398 5.808 6.833a1.197 1.197 0 0 0 1.692-1.334 1.203 1.203 0 0 0-.488-.725c-1.759-1.008-5.397-3.348-4.535-5.876.384-1.136 1.529-1.948 2.255-2.862.424-.447.721-.999.862-1.6.141-.6.121-1.227-.06-1.816a1.224 1.224 0 0 0-1.242-.86 1.223 1.223 0 0 0-.517.151c-1.631.854-4.15-.769-3.775-2.665.325-1.598 2.776-2.623 4.091-1.589 1.315 1.034 2.904-.743 1.708-1.708l-.017.051ZM337.972 448.432c-.487 4.519-.649 9.396 1.033 13.727 1.683 4.33 4.911 6.141 9.317 7.2 1.324.325 3.724 1.017 3.809 2.776.086 1.76-2.203 1.914-3.262 2.563a6.822 6.822 0 0 0-3.083 4.638c-1.178 5.62 3.655 11.539 1.102 16.818-.666 1.375 1.4 2.563 2.066 1.204 2.733-5.663-1.494-10.779-.982-16.51a5.316 5.316 0 0 1 1.845-3.938c.854-.649 2.041-.786 2.963-1.367a3.718 3.718 0 0 0 1.418-4.723c-.854-2.101-2.801-3.101-4.876-3.647-2.87-.761-5.389-1.247-7.114-3.895-2.742-4.211-2.366-10.054-1.845-14.82.162-1.52-2.229-1.512-2.391 0v-.026ZM173.457 446.826a14.623 14.623 0 0 1-1.794 17.161 1.199 1.199 0 0 0 .239 1.87c5.645 2.392 6.397 9.396 6.03 14.768-.427 6.27-1.649 12.907 1.989 18.501.854 1.29 2.904.094 2.067-1.204-4.142-6.38-1.221-14.059-1.631-21.08-.299-5.185-2.092-10.865-7.25-13.043l.247 1.87a17.088 17.088 0 0 0 4.361-9.673 17.09 17.09 0 0 0-2.192-10.382 1.198 1.198 0 1 0-2.066 1.212Z" fill="#153A23"/><path d="M76.638 351.059a94.148 94.148 0 0 1 4.492-12.582c.3-.624.854-1.35 1.503-1.076.65.273.53 1.067.385 1.708-.911 3.844-1.828 7.684-2.75 11.522a22.06 22.06 0 0 1 10.538 1.606.566.566 0 0 1 .069.983c-2 1.281-4.35 1.905-6.722 1.785-.854 0-1.819-.145-2.433.435a2.933 2.933 0 0 0-.675 1.495 39.012 39.012 0 0 1-3.621 9.498.65.65 0 0 1-1.007.147.652.652 0 0 1-.189-.335c-.674-2.981.666-6.337.59-9.523a1.71 1.71 0 0 0-.257-1.017 1.89 1.89 0 0 0-1.178-.572 68.071 68.071 0 0 1-9.907-3.015c-.854-.333-1.895-1.299-1.255-1.982.215-.189.484-.305.769-.333a15.202 15.202 0 0 1 6.055 0l5.593 1.256ZM48.72 380.621c-3.244 3.075-2.45 9.583 3.118 8.02 8.233-2.306 2.451-13.29-3.117-8.02ZM57.474 243.153c-4.457 4.211-3.356 13.137 4.27 10.993 11.273-3.161 3.357-18.211-4.27-10.993ZM167.222 89.951a92.732 92.732 0 0 1 .265-13.333c.077-.675.393-1.555 1.076-1.495.683.06.854.854.905 1.47.371 3.928.729 7.863 1.077 11.804a21.966 21.966 0 0 1 10.504-1.854.556.556 0 0 1 .376.906 11.429 11.429 0 0 1-5.791 3.843c-.854.23-1.776.436-2.177 1.196a2.924 2.924 0 0 0-.154 1.632 39.02 39.02 0 0 1-.401 10.249.654.654 0 0 1-.528.515.652.652 0 0 1-.668-.31c-1.588-2.613-1.392-6.218-2.477-9.207a1.844 1.844 0 0 0-.572-.855 1.998 1.998 0 0 0-1.306-.162 68.67 68.67 0 0 1-10.351.316c-.931 0-2.203-.632-1.819-1.469.144-.25.362-.45.623-.572a15.374 15.374 0 0 1 5.748-1.905l5.67-.769ZM153.089 116.797c-2.468 2.332-1.862 7.278 2.374 6.091 6.251-1.751 1.862-10.097-2.374-6.091ZM343.147 76.25c-4.646 4.4-3.501 13.667 4.458 11.48 11.768-3.305 3.51-19.013-4.458-11.48ZM363.609 96.29c-2.468 2.33-1.853 7.276 2.374 6.089 6.252-1.751 1.862-10.13-2.374-6.09ZM102.19 259.476c-2.468 2.332-1.862 7.277 2.366 6.09 6.251-1.751 1.861-10.096-2.366-6.09ZM430.529 261.919c.004-3.43.252-6.856.743-10.25.085-.521.367-1.188.854-1.111.487.077.615.684.64 1.162.12 3.049.239 6.09.35 9.139a16.863 16.863 0 0 1 8.165-.999.43.43 0 0 1 .358.505.425.425 0 0 1-.102.204 8.772 8.772 0 0 1-4.612 2.725c-.64.145-1.383.273-1.708.854a2.2 2.2 0 0 0-.179 1.247 30.345 30.345 0 0 1-.726 7.858.5.5 0 0 1-.422.377.5.5 0 0 1-.5-.266c-1.128-2.075-.854-4.851-1.546-7.2a1.448 1.448 0 0 0-.401-.701 1.535 1.535 0 0 0-1-.179 53.062 53.062 0 0 1-7.993-.171c-.709-.068-1.708-.572-1.341-1.213.125-.182.3-.325.504-.41a11.71 11.71 0 0 1 4.535-1.264l4.381-.307ZM455.415 234.492c-3.246 3.075-2.451 9.583 3.117 8.02 8.224-2.306 2.451-13.282-3.117-8.02ZM236.328 30.963c-3.245 3.075-2.451 9.584 3.118 8.02 8.215-2.305 2.45-13.281-3.118-8.02ZM427.258 375.052c-5.235 4.954-3.945 15.434 5.022 12.923 13.254-3.724 3.945-21.405-5.022-12.923Z" fill="#fff"/></svg>