<svg width="95" height="150" fill="none" xmlns="http://www.w3.org/2000/svg"><path d="M25.92 21.494C16.73 48.124 8.94 76.271 2.7 105.46c-1.44 6.723-2.82 13.712-2.69 20.894.13 7.182 2.08 14.718 5.75 17.824 2.08 1.764 4.46 1.958 6.76 2.064 21.39.918 42.85-3.9 63.42-14.259 8.31-4.182 17.96-12.529 18.4-27.758.3-10.465-4.06-19.236-6.75-28.589-4.38-15.229-4.56-33.864-10.22-47.717C72.25 15.37 65.61 2.277 56.89.935 51.74.141 46.1-.917 40.41 1.43c-6.25 2.558-11.5 10.04-14.49 20.064Z" fill="#F7BC28"/><path d="M32.5 24.37C28.73 43.5 27.18 64.289 28 84.725c.4 9.847 1.41 19.976 4.4 27.97 3.83 10.253 10.7 15.565 17.17 14.153 6.47-1.412 12.39-9.123 15.97-19.729C70.77 91.641 71 71.824 70.3 53.33c-.63-16.447-2.71-35.277-10.23-42.83-5.91-5.93-13.05-2.576-19.46.9L32.5 24.37Z" fill="#FFC9A0"/><path d="M23.41 64.606c8.9.07 19.08-7.112 21.32-10.87 6.75-11.383 7.43-34.942 7.23-50.595L30.81 16.518l-7.25 24.035-.15 24.053Z" fill="#F7BC28"/><path d="M47.17 3.124s9.01 45.264 27.94 51.759L72.13 35.4l-7.5-25.376-17.46-6.9ZM58.12 52.112c-.5-.141-.99.317-1.21 1.13-.05.193-.11.387-.15.6-.14.67-.13 1.57.23 1.905.14.141.31.141.47.141 1.68.053 3.35.46 4.99 1.147.83.353 1.65.777 2.46 1.289.2.123.95.864 1.13.74.34-.211.17-1.288.03-1.676-.19-.511-.5-.847-.79-1.164l-.08-.089c-1.65-1.782-3.49-3-5.4-3.53l-1.68-.493Z" fill="#F7BC28"/><path d="M42.56 8.753c-6.57.018-13.32 18.618-15.64 27.953-2.59 10.43-7.17 21.6-10.32 31.518-3.08 9.706-6.14 19.5-8.48 29.859-1.16 5.117-2.13 10.376-2.81 15.758-.61 4.765-.49 5.912-.85 10.836-.41 5.594-.28 12.141 2.9 13.182 3.12 1.024 8.86.777 11.98 1.5.58.141.84-1.447.25-1.588-4.52-1.077-12 2.347-13.79-7.888-.82-4.695-.28-9.865.29-14.542.61-5.047 6.73-24.282 7.76-29.1 4.23-19.711 7.39-22.958 12.49-41.947 2.85-10.605 5.93-22.8 11.32-30.176.84-1.165 1.77-2.135 2.79-2.683.87-.458 2.24-1.058 2.99-1.411.95-.477.73-1.27-.88-1.27Z" fill="#fff"/><path d="M33.05 135.547c-.15 0-.29-.017-.44-.035-2.9-.494-7.53-1.853-10.14-3.741-2.35-1.694-4.93-4.112-6.26-8.082-2.29-6.795-1.91-17.471 1.16-23.365.4-.777.55-2.665.14-1.888-2.65 5.1-4.06 10.694-3.59 17.4.32 4.5.21 8.911 1.58 11.223 1.68 2.841 5.11 5.224 7.26 6.688 2.61 1.765 6.11 2.4 8.88 2.842.59.105 3.42 0 3.05-1.024h-1.64v-.018Z" fill="#fff"/><path d="M23.26 88.87c-1.37 6.583-2.91 17.419-2.04 22.801.51 3.123 3.88 7.853 6.57 11.806.46.67 1.46 1.164 1 .476-2.56-3.759-5.4-7.941-6.29-13.87-1.01-6.689.07-15.477 1.39-21.777.2-.988-.42-.423-.63.565ZM25.99 57.741c3.33-.864 6.47-3 9.53-5.4 2.83-2.206 7.37-5.93 9.64-9.74 2.25-3.813 2.74-10.342 3.75-15.477 1.1-5.541.92-8.63.94-14.489 0-1.058-.66-3.9-.66-2.84 0 16.5-2.02 25.958-6.6 33.352-2.17 3.494-4.89 5.718-7.55 7.783-2.99 2.329-6.06 4.394-9.31 5.223-.58.159-.33 1.747.26 1.588ZM32.2 39.988c.79-5.188 4.44-10.412 6.54-14.364 2.29-4.289 2.79-5.736 5.57-8.947.5-.583.98-3.194.48-2.612-2.98 3.441-6.82 8.612-9.21 13.27-2.13 4.147-3.48 8.541-3.67 11.242-.07 1.04-.38 3.794-.01 4.04l.3-2.629Z" fill="#fff"/><path d="M39.82 34.941c2.92-6.529 6.23-14.611 5.73-19.94-.1-1.024-.81-1.483-.9-.442-.65 8.206-3.7 16.394-6.52 22.73-.37.811.4.547.77-.283l.92-2.065ZM77.22 55.094c-10.5-4.94-18.91-20.682-21.1-39.458-.15.353-.3.688-.45 1.04C62.34 15.6 68.2 23.03 72.02 32.1c4.39 10.43 6.19 23.365 8.58 35.436 1.24 6.247 2.77 12.14 4.44 18.07 1.64 5.824 3.33 12.194 2.89 18.865-.73 11.153-7.07 17.506-12.48 20.912-8.32 5.241-17.35 7.57-26.16 7.711-.6.018-1.98 2.471-1.39 2.471 8.43-.141 15.75-1.888 23.79-6.388 5.52-3.088 14.94-10.783 17.12-20.983 1.29-6.017 1.43-11.311.08-17.082-1.52-6.53-5-12.723-6.44-19.323-2.78-12.777-6.01-31.765-7.64-36.371-4.89-13.906-11.58-21.6-19.13-20.382-.31.053-.51.476-.45 1.04C58.4 42.972 66.18 51.6 76.98 56.666c.58.282.82-1.288.24-1.57Z" fill="#fff"/><path d="M47.75 127.747c6.56.971 17.14-.106 23.41-4.2 5.08-3.317 6.21-8.223 8.45-17.188 1.25-5.012 2.12-4.535-.06-15.812-.19-1.006-1.16-1.341-.85-.441 2.99 8.824-.89 20.806-4.77 26.453-4.37 6.371-10 9.194-15.57 9.918-3.53.458-7.08.158-10.6-.371-.61-.088-.61 1.553-.01 1.641Z" fill="#fff"/><path d="M83.28 109.659c2.69-6.194 1.7-10.412.73-17.823-1.14-8.683-4.07-16.236-6.76-23.612-.32-.883-1.13-.07-.8.83 2.56 7.005 5.31 14.082 6.53 22.235 1.09 7.288 1.37 13.253-.98 20.753-.29.917-.45 2.505-.09 1.676l1.37-4.059ZM64.5 114.794c4.14-2.117 7.85-11.364 9.53-18.247 2.05-8.453-.33-13.447-1.48-22.217-.14-1.024-1.03-.6-.9.44 1.09 8.277 1.4 17.26-.45 25.271-1.53 6.618-4.82 11.065-8.51 14.295-.35.3-1.06 1.623-1.06 1.623l2.87-1.165ZM62.74 29.365c1.64 1.288 3.5 3.67 4.91 6.247 1.46 2.682 4.79 9.724 6.03 12.724 2.4 5.858 2.37 8.082 3.82 14.84.21.971 1.11.548.9-.44-1.55-7.253-3.64-14.1-6.26-20.312-1.27-3.018-1.19-4.341-2.69-7.024-1.44-2.576-3.34-5.294-5.35-6.335-.58-.3-1.94 0-1.36.3Z" fill="#fff"/><path d="M29.65 63.636c-3.97 1.147-5.4 1.058-9.04 4.305-2.61 2.33-5.36 5.718-5.78 10.836-.54 6.582 3.19 12.053 6.89 13.323 3.7 1.27 7.52-.159 11.28.37M69.25 53.136c3.36-.6 6.78.194 9.94 2.294 3.16 2.1 5.84 7.747 5.27 13.605-.62 6.318-4.42 9.83-7.84 11.965-3.21 1.994-6.5 3.6-9.83 4.8M40.87 124.218l2.73 25.147h8.36l3.02-32.559-14.11 7.412Z" fill="#FFC9A0"/><path d="M32.69 102.247c-.12.194-.3.194-.42 0-.95-1.482-2.06-2.63-3.05-4.041-1.06-1.518-2.02-3.459-2.26-5.824-.45-4.447 2.13-7.464 4.22-4.606.59.795 1.05 1.853 1.48 2.93.04.106.15.053.14-.088-.08-1.236.18-2.541.64-3.494.79-1.677 2.47-3.106 3.74-2.683 1.79.582 1.75 4.236 1.26 6.635-.59 2.895-2.28 5.453-3.52 7.483l-2.23 3.688ZM65.54 99.547c-.13.177-.31.124-.41-.088-.85-1.659-1.87-3.018-2.76-4.624-.96-1.711-1.78-3.847-1.87-6.247-.16-4.517 2.6-6.97 4.5-3.723.53.918.92 2.047 1.28 3.212.04.123.14.07.14-.053 0-1.253.35-2.489.87-3.353.9-1.5 2.65-2.577 3.89-1.906 1.74.953 1.46 4.553.82 6.847-.78 2.753-2.62 4.941-3.98 6.724l-2.48 3.211Z" fill="#F1673C"/><path d="M53.84 108.124c3.19-2.365 5.69-6.918 6.9-12.635.12-.583-.14-1.253-.45-1.412-.36-.177-.68.212-.8.794-1.03 4.888-3.26 9.018-5.99 11.029-.32.247-.56.759-.45 1.412.07.547.46 1.059.79.812ZM54.36 66.989c.56 4.2 2.82 7.764 5.37 6.74 2.36-.952 3.39-5.382 4.07-9.017-.32.23-.64.459-.95.688 1.54 1.394 3.08 2.771 4.62 4.165.74.67 1.4-1.306.66-1.976-1.54-1.394-3.08-2.77-4.62-4.165-.39-.353-.82-.053-.95.688-.5 2.665-1.18 6.212-2.84 7.253-1.96 1.235-3.67-1.835-4.09-4.976-.21-1.447-1.47-.83-1.27.6Z" fill="#010101"/><path d="M61.89 69.706c.06.07.11.141.16.212.09.123.02.035-.03-.036.04.053.07.106.11.16.13.193.27.37.4.564.31.441.61.9.92 1.341.58.847 1.15 1.712 1.76 2.488.28.353.74.106.89-.406.18-.6.06-1.2-.23-1.57-.06-.07-.11-.141-.16-.212-.09-.123-.02-.035.03.035-.04-.052-.07-.105-.11-.158-.13-.194-.27-.371-.4-.565-.31-.441-.61-.9-.92-1.341-.58-.847-1.15-1.712-1.76-2.489-.28-.353-.74-.105-.89.406-.18.583-.06 1.183.23 1.57ZM42.97 69.936c-.42 3.14-2.13 6.211-4.09 4.976-1.66-1.041-2.34-4.588-2.84-7.253-.14-.723-.57-1.041-.95-.688-1.54 1.394-3.08 2.77-4.62 4.165-.75.67-.09 2.647.66 1.976 1.54-1.394 3.08-2.77 4.62-4.165-.32-.229-.64-.458-.95-.688.68 3.635 1.71 8.047 4.07 9.018 2.55 1.041 4.81-2.541 5.37-6.741.18-1.412-1.08-2.03-1.27-.6Z" fill="#010101"/><path d="M36.03 71.277c-.61.776-1.18 1.64-1.76 2.488-.31.441-.61.9-.92 1.341-.13.194-.26.37-.4.565-.03.053-.06.088-.1.14-.04.054.14-.176.01-.017-.05.07-.11.142-.16.212-.27.353-.44 1.006-.23 1.57.18.477.6.795.89.407.61-.777 1.18-1.642 1.76-2.489.31-.44.61-.9.92-1.34.13-.195.26-.371.4-.566.03-.052.06-.088.1-.14.04-.054-.14.176-.01.017.05-.07.11-.141.16-.212.27-.353.44-1.006.23-1.57-.17-.477-.59-.777-.89-.406ZM73.58 61.377c1.18-.318 2.44.07 3.59.582 1.14.512 2.31 1.165 2.98 3.018.35.97.48 2.047.25 3.158-.21 1.024-.6 1.995-1.02 2.789-.74 1.376-1.7 2.276-2.67 3-1.16.864-2.37 1.517-3.52 2.417-.55.424-.07 1.836.47 1.412 2.28-1.782 4.98-2.63 6.65-6.194.93-1.976 1.51-4.394.83-6.865-.63-2.259-1.85-3.37-3.16-4.059-1.48-.776-3.09-1.252-4.63-.846-.61.158-.36 1.746.23 1.588Z" fill="#010101"/><path d="M74.4 70.8c.36-.123.72-.424 1.04-.706.45-.37.88-.83 1.27-1.376.35-.494.68-1.165.71-1.977.03-1.076-.53-1.712-1.03-2.082-.71-.512-1.5-.6-2.26-.724-.24-.035-.47.406-.46.812.01.477.2.777.46.812l.39.053c.08.017.15.017.23.035.03 0 .06.018.08.018.02 0 .16.035.11.017l.07.018c.04.018.09.018.13.035.07.018.15.036.22.07.16.054.31.124.47.195.07.035.13.07.2.124.03.017.05.035.08.053-.1-.071.02.017.04.035.06.053.12.106.17.159.03.035.05.053.08.088.11.123-.04-.07.01.017l.08.142c.06.088-.06-.177-.02-.053.01.017.01.035.02.053.06.159-.03-.194 0-.018.04.23-.01-.176 0 0 0 .018-.01.088 0 .088-.01-.017.03-.212.01-.123l-.03.159c-.02.14.06-.195.02-.071a.199.199 0 0 0-.02.088c-.02.07-.04.124-.06.177-.05.123.08-.16.02-.036a.422.422 0 0 0-.04.089l-.09.158c-.07.124-.15.247-.23.371-.02.035-.06.106.03-.035a.386.386 0 0 1-.07.088l-.12.159c-.09.106-.19.212-.28.317-.18.195-.37.371-.56.53-.1.088-.2.176-.31.247-.01.018-.03.035-.05.035.14-.07.03-.017-.01 0a.567.567 0 0 1-.13.089c-.13.088-.27.176-.4.229-.24.088-.4.617-.32 1.006.06.53.3.723.55.635ZM25.87 86.047c-1.62.353-3.25.124-4.82-.723-1.12-.6-3.3-1.8-3-4.518.14-1.27.66-2.347 1.16-3.23.51-.9 1.06-1.729 1.66-2.434 1.23-1.483 2.6-2.506 4.05-3.071.58-.23.34-1.8-.25-1.588-2.53.988-5.08 3.44-6.7 7.058-.78 1.748-1.28 4.148-.45 6.124.76 1.818 2.24 2.7 3.42 3.318 1.59.83 3.27 1.058 4.91.706.61-.124.62-1.765.02-1.642Z" fill="#010101"/><path d="M23.95 75.512c-.63.123-1.23.424-1.8.9a5.276 5.276 0 0 0-1.42 1.87c-.41.9-.48 2.012-.19 3.053.25.918.74 1.589 1.29 1.889.72.406 1.49.194 2.22 0 .25-.07.39-.618.32-1.006-.07-.477-.32-.636-.57-.565-.6.159-1.26.335-1.84-.07.05.035-.1-.089-.11-.106-.06-.053-.11-.124-.17-.195.03.036.02.018-.02-.035l-.07-.123c-.01-.018-.12-.23-.09-.16-.04-.087-.07-.193-.11-.281-.02-.053-.03-.106-.04-.16.01.071.01.054-.01-.035-.02-.106-.04-.211-.05-.317.01.14 0-.16 0-.194v-.036c.01-.053.01-.106.02-.159a.764.764 0 0 1 .06-.229c.06-.194.14-.335.24-.512.21-.353.45-.635.7-.882.5-.512 1.09-.865 1.65-.97.25-.053.46-.336.46-.812-.01-.441-.22-.9-.47-.865Z" fill="#010101"/><path d="M49.59 78.3c.81 3.67 1.73 7.341 2.39 11.012.16.9-.23 1.8-.76 1.818-.94.017-2.05.035-2.97.035-.47 0-.84-.706-.8-1.553l.6-10.959c.08-1.482 1.23-1.747 1.54-.353Z" fill="#E48929"/><path d="M54.25 124.659s-6.55 4.641-13.39-.441l.52 4.764 11.76 7.606 1.11-11.929Z" fill="#EFB086"/><path d="M49.81 12.07c3.32-.158 6.31-2.294 9.6-1.305 2.28.688 4.96 2.77 6.82 5.03 3.85 4.676 6.77 9.6 9.78 15.97.41.882 4.29 11.153 1.05-.07-2.21-7.624-7.39-13.13-11.38-17.948-1.9-2.294-3.71-4.006-6.01-4.694-3.38-1.024-10.56-1.853-10.53-.724.05 1.447.05 2.753.05 2.753l.62.989Z" fill="#fff"/></svg>