<svg width="66" height="145" fill="none" xmlns="http://www.w3.org/2000/svg"><path d="M56.767 145H9.233C4.133 145 0 137.464 0 128.163V25.642C0 16.34 4.133 8.804 9.234 8.804h47.532C61.867 8.804 66 16.34 66 25.642v102.521C66 137.464 61.867 145 56.767 145Z" fill="#F7BC28"/><path d="M55.525 53.23h-45.05c-2.147 0-3.897-3.191-3.897-7.107v-19.78c0-3.915 1.75-7.106 3.897-7.106h45.05c2.147 0 3.897 3.191 3.897 7.106v19.78c0 3.916-1.75 7.107-3.897 7.107ZM55.525 92.45h-45.05c-1.812 0-3.277-2.67-3.277-5.975v-19.78c0-3.304 1.465-5.974 3.277-5.974h45.05c1.812 0 3.277 2.67 3.277 5.974v19.78c0 3.304-1.465 5.975-3.277 5.975ZM55.525 133.933h-45.05c-2.147 0-3.897-3.191-3.897-7.106v-19.78c0-3.915 1.75-7.106 3.897-7.106h45.05c2.147 0 3.897 3.191 3.897 7.106v19.78c0 3.915-1.75 7.106-3.897 7.106Z" fill="#E48929"/><path d="M33.348 82.605c1.823 0 3.3-2.695 3.3-6.02 0-3.325-1.477-6.02-3.3-6.02-1.824 0-3.302 2.695-3.302 6.02 0 3.325 1.478 6.02 3.302 6.02ZM33.348 122.957c1.823 0 3.3-2.695 3.3-6.02 0-3.325-1.477-6.02-3.3-6.02-1.824 0-3.302 2.695-3.302 6.02 0 3.325 1.478 6.02 3.302 6.02Z" fill="#F7BC28"/><path d="M10.264 10.637c1.638 16.52 2.68 33.676 4.418 50.084h32.752c-2.681-28.743-4.071-39.108-5.61-57.552-.174-1.992-1.18-3.395-2.271-3.146l-27.54 6.246c-1.166.272-1.96 2.263-1.75 4.368Z" fill="#FBFAF7"/><path d="M18.541 24.691c6.193.385 12.374-.113 18.53-1.494.98-.226.992-3.055 0-2.829a65.644 65.644 0 0 1-18.53 1.494c-.992-.045-.992 2.784 0 2.829ZM19.783 36.007c6.193.385 12.373-.113 18.529-1.494.98-.226.993-3.055 0-2.829a65.655 65.655 0 0 1-18.53 1.494c-.992-.045-.992 2.784 0 2.829ZM21.023 47.323c6.193.385 12.374-.113 18.53-1.494.98-.226.992-3.055 0-2.829a65.644 65.644 0 0 1-18.53 1.494c-.992-.045-.992 2.784 0 2.829Z" fill="#194429"/></svg>