<svg width="488" height="421" fill="none" xmlns="http://www.w3.org/2000/svg"><path d="M368.527 61.643c106.761 94.902 123.242 175.5 118.177 203.946-22.831 127.125-122.839 150.349-152.826 152.036-39.553 2.17-103.062-.723-144.866.402-114.398 6.509-160.785-57.697-169.628-90.563C-35.282 192.946 41.331 89.366 86.512 54.411c116.086-100.688 236.433-37.125 282.015 7.232Z" fill="#F7BC28"/><path d="M187.645 155.902c-3.859 15.589-10.451 31.5-23.716 40.58-12.3 8.438-29.021 9.402-42.768 3.536s-24.36-17.92-29.745-31.822c-4.02-10.446-4.824-23.464 2.813-31.741 4.02-4.339 9.647-6.669 15.195-8.839l36.015-14.384a3.76 3.76 0 0 1 4.985.964l37.543 35.518" fill="#32142A"/><path d="M148.655 120.464a38.957 38.957 0 0 1-14.23 9 69.187 69.187 0 0 1-16.56 3.536c-2.251.241-4.502.482-6.432 1.527a11.345 11.345 0 0 0-3.939 4.098 21.895 21.895 0 0 0-2.814 10.688 36.08 36.08 0 0 0 7.879 24.187c6.994 8.759 17.525 15.027 28.78 15.991 11.496.964 23.716-4.741 29.022-15.187 1.045-2.09 1.688-9.081-1.608-1.366-3.698 8.598-14.953 12.857-24.198 13.017-10.531.161-20.661-5.303-27.575-12.937-3.456-3.777-8.2-8.277-9.486-13.179a39.698 39.698 0 0 1-.965-7.553 24.831 24.831 0 0 1 .322-6.911c.804-3.375 5.065-7.232 8.2-8.277 2.01-.643 4.18-.562 6.271-.643 7.235-.321 14.149-3.375 20.017-7.553 1.447-1.045 2.894-2.17 4.341-3.295a8.386 8.386 0 0 0 1.689-1.687 2.41 2.41 0 0 0 .16-2.331 1.433 1.433 0 0 0-1.929-.482c-.08 0-.08.081-.161.081l3.216-.724Z" fill="#7F4341"/><path d="M120.598 155.58c-.402-3.214-1.045-7.312 1.286-9.964 2.332-2.652 6.432-2.812 9.728-2.732 4.1.161 11.013-1.607 14.953-3.616 3.376-1.688 4.019.161 6.833-2.17 1.769-1.527-.804-4.018-2.573-2.571-2.974 2.571-6.511 4.982-10.45 5.544-4.261.643-8.763-1.205-13.024-.723-3.537.402-7.075 1.848-9.084 4.982-2.171 3.295.964 8.759 1.447 12.456a1.784 1.784 0 0 0 1.768 1.768c.965.08-.723-2.009-.884-2.974ZM164.331 164.58c3.779-3.616 4.502-4.259 6.914-8.919a1.911 1.911 0 0 0-.643-2.491c-.804-.482-.724-.884-1.206 0a46.47 46.47 0 0 1-8.682 12.134c-.724.642-4.985 2.732-4.261 3.375.723.642 4.904-1.527 5.627-2.17l2.251-1.929Z" fill="#7F4341"/><path d="M167.306 311.393c7.155 3.536 15.355 4.741 23.233 4.178 6.11-.401 15.757-1.125 18.49-7.714 5.789-14.062 11.577-29.491 17.445-43.875 1.849-4.5-3.054-7.312-6.511-8.759a42.567 42.567 0 0 0-19.294-2.652c-5.146.402-14.391 2.09-17.365 6.991l-1.528 3.054-14.47 48.777Z" fill="#E48929"/><path d="m172.773 313.643.884.08c4.663.322 27.494 1.527 35.774-6.83l1.045-2.652-37.703 9.402Z" fill="#C05929"/><path d="M221.731 273.625c1.367.402 2.653.804 3.94 1.286l.482.16c.257.103.5.238.723.402.242.161.483.241.724.402l.322.241c.402.241-.242-.161.08.08a6.159 6.159 0 0 1 2.331 5.545c-.402 4.821-4.823 7.875-9.325 8.598-.483.081.321 0-.161 0l-.563.081h-2.09c-.161 0-.884-.081-.643-.081a10.814 10.814 0 0 1-3.859-1.205 2.675 2.675 0 0 0-3.537.884c-.174.294-.287.62-.332.959a2.541 2.541 0 0 0 .523 1.919c.211.269.474.492.774.657a17.815 17.815 0 0 0 18.57-1.446c2.894-2.17 5.145-5.223 5.628-8.839a11.744 11.744 0 0 0-2.653-9.804c-2.412-2.812-6.19-3.937-9.647-4.982-3.136-.803-4.502 4.179-1.287 5.143Z" fill="#E48929"/><path d="M177.676 280.134a16.262 16.262 0 0 0 6.673 10.928c3.537 2.652 9.647 4.259 13.988 4.661-1.447 2.089-5.627 2.973-8.119 3.616a13.72 13.72 0 0 1-7.638-.08c-3.698-1.205-6.431-4.42-7.798-8.036a22.895 22.895 0 0 1-.804-11.411" fill="#C05929"/><path d="M144.716 118.375c-5.467-27 19.776-53.036 44.537-59.304 49.602-12.455 55.792 61.393 13.184 87.911-9.004 5.545-21.706-5.384-31.915-8.196-10.21-2.813-19.295-9.965-23.636-19.608" fill="#32142A"/><path d="M181.937 67.188c-15.837 2.25-15.355-27.161-.241-30.134 6.029-1.206 13.104.883 17.124 5.544 2.492 2.893 7.154 21.375.643 22.179a612.839 612.839 0 0 0-17.526 2.41Z" fill="#32142A"/><path d="M141.42 143.527c-.402.723 7.155-2.974 7.396-2.25 1.849 4.901 5.949 8.196 10.451 10.768 4.904 2.812 13.666 10.446 19.294 10.446 12.461-.161 24.68-15.027 32.559-24.67 8.36-10.205 10.933-22.259 13.184-35.196.482-2.813.563-5.947-1.126-8.197a9.857 9.857 0 0 0-3.698-2.812c-13.506-6.83-30.388-2.893-42.768 5.786-11.094 7.875-19.214 18.964-26.851 30.214-2.251 3.375-3.779 7.875-8.441 15.911Z" fill="#FFC9A0"/><path d="M152.594 127.777c-6.833-.643-11.576-8.839-9.325-15.268 2.251-6.429 10.451-9.884 16.882-7.554 6.431 2.331 10.451 9.724 9.486 16.554M130.888 157.75l17.043-23.143a2.549 2.549 0 0 1 1.528-1.205 2.354 2.354 0 0 1 1.688.884c4.02 3.696 8.361 8.116 7.959 13.58-.161 2.652-1.528 5.063-2.814 7.393l-9.888 17.679-15.516-15.188Z" fill="#FFC9A0"/><path d="M126.145 149.714c-50.969 22.741-78.463 76.099-91.486 127.768-4.985 19.607-7.316 39.134-8.924 59.223-.24 2.974-2.01 49.099-3.537 49.099 42.688.08 66.082-5.866 108.69-5.786-9.165-78.509 4.181-142.393 20.741-207l-25.484-23.304Z" fill="#FAC7B7"/><path d="M226.716 93.223c-.293-.865-.67-1.7-1.126-2.49-4.823-9-16.4-11.572-25.806-9.805-11.657 2.25-21.866 9.804-30.87 18.161-3.538 3.295-9.889 8.518-10.692 11.089-.804 2.572 16.641 9.322 20.339 9.804 9.727 1.366 19.857.08 29.263-2.732 4.823-1.447 12.058-2.732 16.158-5.786.965-.803 5.065-11.732 2.734-18.24Z" fill="#32142A"/><path d="M150.343 329.795c3.537-8.518 12.541-13.661 21.545-15.911 9.004-2.25 18.41-2.411 27.414-4.661 9.004-2.25 18.088-7.232 21.706-15.669 1.447-3.375.884-8.759-2.814-9a6.814 6.814 0 0 0-3.859 1.366c-4.582 2.812-8.762 6.268-13.506 8.759-4.743 2.491-10.29 4.098-15.515 2.812-5.226-1.286-9.808-5.946-9.647-11.33a39.542 39.542 0 0 1 1.366-6.831c.402-1.446-4.984 1.527-6.431 3.134-1.447 1.608-2.975 3.215-3.618 5.304-3.939 12.696-16.48 20.33-28.057 26.839" fill="#FFC9A0"/><path d="M151.227 122.312c-2.411-2.169-4.984-6.107-3.135-9.401a8.291 8.291 0 0 1 8.682-3.777c1.126.241 1.608-1.527.483-1.768-4.02-.723-8.683.884-10.692 4.661-2.251 4.018.321 8.839 3.457 11.571.803.804 2.09-.482 1.205-1.286Z" fill="#32142A"/><path d="M154.041 118.696c-.241-.321-.482-.723-.723-1.044a4.707 4.707 0 0 1-.322-.643c-.08-.161-.161-.241-.161-.402a1.907 1.907 0 0 1-.161-.643c.081.161 0-.08 0-.08v-.643a.296.296 0 0 1 .014-.129.292.292 0 0 1 .067-.112c0-.08 0-.08.08-.161.081-.08.081-.16.161-.241.08-.08.161-.241.08-.08l.161-.161.081-.08c.08-.081.16-.081.241-.161-.161.08 0 0 .08 0 .081 0 .161-.08.241-.08h1.447l.242.08.562.161a.941.941 0 0 0 .643-1.768c-.08 0-.08 0-.16-.08a6.257 6.257 0 0 0-2.975-.241 3.209 3.209 0 0 0-2.331 1.607 3.784 3.784 0 0 0-.241 2.973 7.366 7.366 0 0 0 1.527 2.812 1 1 0 0 0 1.286.241 1.153 1.153 0 0 0 .161-1.125Z" fill="#32142A"/><path d="M204.286 299.5c2.492-1.527 4.824-3.134 7.236-4.821 3.537-2.491 7.315-4.822 9.647-8.599.884-1.446-1.367-2.732-2.251-1.285-2.171 3.455-5.869 5.625-9.085 7.875a128.519 128.519 0 0 1-6.913 4.58c-1.367.884-.081 3.134 1.366 2.25ZM209.833 302.152a54.938 54.938 0 0 0 7.396-5.465c2.171-2.008 4.181-4.339 6.191-6.589 1.125-1.205-.724-3.053-1.849-1.848-2.01 2.17-3.94 4.42-6.11 6.429a46.705 46.705 0 0 1-6.914 5.142c-1.367.965-.08 3.215 1.286 2.331Z" fill="#EFB086"/><path d="M217.792 264.545c-1.206.08-2.331 0-3.537 0-2.573 0-5.145-.081-7.718-.322a68.56 68.56 0 0 1-15.596-2.973c-1.447-.482-3.216-1.527-2.733-2.893.321-.803 1.286-1.205 2.17-1.527 9.487-3.053 14.873-3.134 28.379.965 2.01.643 6.833 2.973 4.743 4.982a4.414 4.414 0 0 1-1.688.964 14.3 14.3 0 0 1-4.02.804ZM194.237 124c4.422-1.768 9.808-1.607 14.471-.803a2.194 2.194 0 0 0 2.814-1.447c.562-1.607-1.126-2.652-2.493-3.134-4.019-1.366-8.441-.964-12.46.241a31.724 31.724 0 0 0-5.869 2.572c-1.206.723-4.341 2.169-4.1 3.937.322 2.411 6.029-.723 7.074-1.205l.563-.161Z" fill="#32142A"/><path d="M177.516 111.304c8.843.482 13.908.723 22.429-2.009a41.923 41.923 0 0 0 17.043-10.125c2.573-2.652 3.377-8.76 4.181-12.456.482-2.25-1.769 1.608-2.895 4.26-2.331 5.624-5.627 7.874-10.611 10.848a43.489 43.489 0 0 1-19.053 6.267c-5.145.322-9.567.884-18.973.804-2.331 0 1.367 2.009 3.698 2.17l4.181.241ZM162 91.616c1.769-3.937 4.743-6.991 8.12-9.643a73.868 73.868 0 0 1 17.445-10.446c3.055-1.286 6.431-2.813 9.727-3.375 3.135-.563 6.592 1.366 9.326 2.652a19.09 19.09 0 0 1 4.019 2.089 4.382 4.382 0 0 1 1.447 1.928c.322 1.527-1.125 1.608-2.331 1.688-5.949.241-12.22.402-18.088 1.848-5.869 1.447-10.692 4.822-15.436 8.598-.804.643-3.135 3.456-2.492 4.099.643.642 5.547-4.26 6.351-4.902a29 29 0 0 1 10.612-5.706c5.306-1.767 11.898 0 17.445-.24 2.894-.161 10.29.642 9.486-.965-.804-1.607-3.858-8.84-6.833-10.366a48.917 48.917 0 0 0-9.486-3.857 10.866 10.866 0 0 0-4.261-.402 27.726 27.726 0 0 0-3.698.964 52.14 52.14 0 0 0-18.731 10.286c-6.271 5.464-12.461 11.009-15.838 18.723-1.045 2.09 2.251-.803 3.216-2.973Z" fill="#7F4341"/><path d="M184.349 99.33c8.763 2.411 17.445-.08 22.992-7.473.563-.803 2.733-5.062 2.332-5.062-.402 0-1.608 2.17-2.171 2.973-4.582 6.107-15.757 9.16-22.992 8.357-6.432-.643-2.492.643-.161 1.205Z" fill="#7F4341"/><path d="m159.427 299.821 2.01-2.25 8.2 16.956-3.617 1.285-6.593-15.991ZM158.222 151.563l-9.406-10.206 5.386 17.759 4.02-7.553Z" fill="#EFB086"/><path d="M200.267 128.179c-2.171.16-4.904 1.848-4.904 3.857 0 2.652 3.537 1.527 4.743.643.884-.643 2.492-1.607 2.572-2.813.081-1.205-1.045-1.768-2.411-1.687ZM210.718 134.929c-1.93.964-3.859 3.535-3.055 5.464 1.045 2.491 3.859.08 4.662-1.286.563-.884 1.689-2.411 1.287-3.616-.402-1.205-1.689-1.205-2.894-.562Z" fill="#32142A"/><path d="M22.198 358.964c.884-9.723-1.125-21.616-1.206-31.339-.08-7.875-.563-13.821 1.93-21.214a2.225 2.225 0 0 1 2.733-1.366 2.285 2.285 0 0 1 1.366 1.366c2.332 6.83 6.271 13.821 7.799 20.973a.933.933 0 0 0 .386.648.937.937 0 0 0 .74.155.973.973 0 0 0 .723-.642c1.286-4.42 1.447-9.161 2.01-13.741a30.115 30.115 0 0 1 2.572-9.563 3.84 3.84 0 0 1 5.065-1.687 3.408 3.408 0 0 1 1.849 2.089l3.617 9.803a45.33 45.33 0 0 0 2.332 5.384 24.806 24.806 0 0 0 6.03 6.59c11.174 9.241 25.885 13.419 40.356 14.062 14.471.643 28.941-2.17 42.929-5.786l-12.621 24.75 1.045 62.92H22.037l.161-63.402Z" fill="#E48929"/><path d="M58.857 358.804c-4.18-9.322-9.567-25.715-11.898-34.393-5.065-18.724-9.085-37.929-7.638-57.295l3.779-6.991c13.988 30.937 29.504 63.643 58.204 81.804 1.367.883 2.814 1.767 3.618 3.133.723 1.206 23.554-.803 23.635.643.402 4.5 1.447 8.599 2.412 13.661l-72.112-.562Z" fill="#E48929"/><path d="M89.165 238.991c2.733-21.455 14.39-42.187 15.194-63.803.08-2.572 0-5.224-1.528-7.313-3.939-5.545-12.702-1.928-17.847 2.411-28.217 23.544-46.386 59.544-45.823 96.268.16 10.205 1.688 20.33 3.698 30.375 3.296 16.634 8.2 33.83 20.259 45.803 15.113 14.947 38.749 18.322 59.49 13.982 20.741-4.339 39.472-15.428 57.721-26.276a38536.654 38536.654 0 0 0-26.047-64.206c-10.611 6.509-21.706 13.259-34.086 14.465-15.194 1.446-27.896-7.715-30.71-22.822a59.541 59.541 0 0 1-.321-18.884Z" fill="#FAC7B7"/><path d="M92.3 168.518c3.135-1.125 6.592-1.366 9.406.643 2.492 1.687 3.698 4.821 3.939 7.714a17.4 17.4 0 0 1-.643 6.107 1.296 1.296 0 1 0 2.492.723 17.78 17.78 0 0 0-.643-12.053 10.634 10.634 0 0 0-8.12-6.348 14.869 14.869 0 0 0-7.235.803c-1.447.482-.804 2.973.804 2.411Z" fill="#F9A793"/><path d="M45.672 309.545c-.884-3.536 31.273 2.571 33.926 3.214 5.627 1.286 7.155 5.143 8.763 10.286 3.537 11.651 7.235 23.303 10.21 35.116.08-.081-40.357 1.366-52.898-48.616Z" fill="#F9B7A5"/><path d="M153.8 265.027a107.899 107.899 0 0 1-15.275 7.553 109.309 109.309 0 0 1-14.952 5.143 26.468 26.468 0 0 1-14.793-.08c-5.466-1.607-10.692-4.822-13.666-9.723A35.177 35.177 0 0 1 90.37 250a1.285 1.285 0 0 0-2.196-.909 1.285 1.285 0 0 0-.377.909 38.772 38.772 0 0 0 3.859 16.955c2.733 5.625 7.316 9.483 13.023 11.974a28.809 28.809 0 0 0 17.044 2.009 95.526 95.526 0 0 0 14.952-4.822 109.873 109.873 0 0 0 18.089-8.678l-.965-2.411Z" fill="#F9A793"/><path d="M205.09 133.321c-.321.241-.643.483-.884.643-3.296 2.813-6.11 6.429-9.084 9.643a2.77 2.77 0 0 0-.965 1.688c0 .803.723 1.446 1.447 1.928 2.572 1.848 5.547 3.777 9.004 1.286a8.041 8.041 0 0 0 2.814-4.098 37.24 37.24 0 0 0 1.768-10.688c.081-2.812-2.412-1.527-4.1-.402Z" fill="#E48929"/><path d="M200.347 393.839s19.214-151.553 160.543-163.205l8.039-12.616L416.361 214l6.11 16.634s61.58 35.839 53.541 107.437l-67.69 27.965v30.616l-207.975-2.813Z" fill="#39B55D"/><path d="M416.441 214s-4.582-40.661-5.225-44.437c-1.367-7.313-2.573-20.25-5.628-27-4.662-10.286-17.364-15.509-28.298-12.697-12.461 3.134-21.143 15.83-25.966 27-4.502 10.366-14.551 41.705-4.502 51.268 7.476 7.152 22.67 2.732 30.468-1.688l-1.849 11.17 41-3.616Z" fill="#B26D55"/><path d="M406.875 170.527c.241-3.134 3.215-5.223 6.109-6.429a13.396 13.396 0 0 1 6.592-1.205 7.228 7.228 0 0 1 5.547 3.375 7.115 7.115 0 0 1 .804 3.857c-.16 4.018-2.652 7.554-5.145 10.768-3.537 4.741-7.396 9.723-12.943 11.812" fill="#B26D55"/><path d="M408.322 366.036c-1.206-20.813-2.412-41.706-.242-62.518 2.171-20.813 3.055-55.447 14.391-72.884 15.354 9.321 37.302 33.027 44.135 49.66 6.672 16.152 12.059 27.563 9.406 57.777l-67.69 27.965Z" fill="#39B55D"/><path d="m360.89 230.634-7.637 11.812-4.18-10.526c-.081.08 8.2-1.286 11.817-1.286Z" fill="#194429"/><path d="M347.867 178.804a53.668 53.668 0 0 0-2.412 12.294 5.764 5.764 0 0 0 .563 3.054c.088.194.227.36.402.482.207.066.425.093.643.08 2.974-.16 6.029-.321 8.762-1.527.48-.171.898-.478 1.206-.883a2.298 2.298 0 0 0 .242-1.768c-.804-5.063-4.422-8.518-6.914-13.42a1.135 1.135 0 0 0-1.447-.402.805.805 0 0 0-.402.482c-.241.483-.402 1.045-.643 1.608Z" fill="#C05929"/><path d="M476.012 338.072a237.45 237.45 0 0 1-9.647 61.392c-3.618 12.536-7.236 35.84-17.928 44.518-10.049 8.036-25.886 1.688-36.257-2.411-13.666-5.383-27.494-9.401-41.16-14.464-17.767-6.589-44.538-10.446-64.153-8.759-9.567.884-13.506-6.107-22.992-5.143-1.689.161-3.618.322-4.985-.642a7.493 7.493 0 0 1-2.331-3.134l-4.663-9.241a7.937 7.937 0 0 1-1.206-4.259c.161-2.331 2.171-4.099 4.181-5.384 10.29-6.911 22.59-10.125 34.89-11.813 34.568-4.741 68.976 3.054 99.365 20.17.321-11.089.643-17.92 1.286-33.75l65.6-27.08Z" fill="#B26D55"/><path d="M334.843 409.75c4.824 1.687 17.526 1.366 20.822 4.5 3.457 3.214-26.047 4.42-29.665 4.821-28.459 2.652-56.918 4.34-85.457 5.465-27.172 1.044-56.355 4.419-83.286.321-11.014-1.687-14.792-6.429-15.355-17.437-1.286-26.92-2.492-53.92-3.779-80.84a10.794 10.794 0 0 1 8.924-11.089 718.116 718.116 0 0 1 142.616-9.161 7.183 7.183 0 0 1 6.913 6.429c1.287 13.5 6.11 44.839 7.075 48.455 2.733 10.206 5.627 20.732 11.094 29.813 4.824 8.196 8.12 14.625 20.098 18.723Z" fill="#194429"/><path d="M409.608 170.848a26.027 26.027 0 0 0 4.663-1.928c1.366-.563 3.376-1.447 4.823-.563.884.482.804 1.527.724 2.411a17.78 17.78 0 0 1-.643 2.973 19.998 19.998 0 0 1-2.573 5.464 13.117 13.117 0 0 1-5.386 4.42c-1.045.482-.161 2.009.884 1.527 4.422-2.009 7.316-6.188 8.682-10.768.318-1.135.56-2.289.724-3.456a4.7 4.7 0 0 0-.563-3.294c-1.286-1.768-3.698-1.688-5.547-1.125-2.17.643-4.18 1.928-6.351 2.491a.868.868 0 0 0-.563 1.125 1.05 1.05 0 0 0 1.126.723Z" fill="#32142A"/><path d="M408.643 175.348c.576-.179 1.14-.393 1.688-.643.303-.084.599-.191.885-.321.16-.08.321-.08.482-.161l.161-.08s.241-.08.08 0h.563c.08 0 .241.08.08 0-.16-.08.081.08.081.08l.16.161.081.161c0 .08.08.16.08.241-.161-.241 0 .08 0 .08v.08c-.08-.16 0-.16 0 0v.322c0 .08-.08.161 0-.08v.08a.601.601 0 0 1-.08.321l-.081.161a4.539 4.539 0 0 1-.321.563l-.161.321-.08.08c-.161.161.161-.16 0 .081-.302.366-.624.715-.965 1.044-.17.181-.359.342-.563.482l-.08.081-.08.08-.322.241a9.502 9.502 0 0 1-1.206.723l-.322.161c-.08 0-.16.081 0 0l-.16.081c-.161.08-.322.08-.483.16a.917.917 0 0 0 .483 1.768 7.17 7.17 0 0 0 2.492-1.205 13.585 13.585 0 0 0 2.572-2.25 5.007 5.007 0 0 0 1.287-2.973 2.75 2.75 0 0 0-2.251-2.652c-1.528-.161-2.975.803-4.422 1.125a.915.915 0 0 0-.643 1.125c0 .482.482.723 1.045.562Z" fill="#32142A"/><path d="M359.282 252.411c4.583-9 9.326-17.84 14.31-26.679.804-1.446-1.447-2.732-2.251-1.286-4.904 8.759-9.647 17.679-14.31 26.679-.723 1.527 1.528 2.812 2.251 1.286ZM394.173 254.179l3.135-32.786c.161-1.688-2.412-1.607-2.573 0l-3.135 32.866c-.161 1.607 2.412 1.607 2.573-.08ZM406.071 244.616v-21.214a1.286 1.286 0 0 0-2.573 0v21.214a1.274 1.274 0 0 0 .792 1.192c.157.064.325.096.494.094a1.321 1.321 0 0 0 1.287-1.286ZM383.882 248.473a153.15 153.15 0 0 1 3.055-18c.402-1.607-2.09-2.33-2.492-.723a147.916 147.916 0 0 0-3.135 18.643 1.268 1.268 0 0 0 1.286 1.286 1.257 1.257 0 0 0 1.286-1.206ZM370.939 253.455l11.175-29.732c.562-1.527-1.93-2.25-2.492-.723l-11.175 29.732c-.563 1.527 1.929 2.25 2.492.723ZM410.09 219.866c2.171 6.429 4.663 12.777 6.673 19.286a1.298 1.298 0 0 0 2.492-.723c-1.929-6.509-4.422-12.858-6.673-19.286-.562-1.527-3.055-.804-2.492.723ZM410.412 365.152a941.446 941.446 0 0 1 1.206-56.411 527.06 527.06 0 0 1 .964-15.911c.081-1.687-2.492-1.687-2.572 0a940.902 940.902 0 0 0-2.171 56.411c-.08 5.304-.08 11.732-.08 17.036l2.653-1.125Z" fill="#194429"/><path d="m395.057 391.75 15.516-63 .08 70.955-15.596-7.955Z" fill="#194429"/><path d="M410.573 398.741a29.976 29.976 0 0 1 6.592 4.741l-6.512-15.83-.08 11.089Z" fill="#A05744"/><path d="M368.045 170.045c-.804 1.768-.643 4.098-.402 6.026.482 3.295 3.296 2.331 4.181-.241.723-2.089 1.045-4.901-.242-6.75-1.286-1.848-2.813-.723-3.537.965ZM340.551 173.661a11.798 11.798 0 0 0-.402 6.027c.482 3.294 3.296 2.33 4.18-.241.724-2.09 1.045-4.902-.241-6.751-1.286-1.848-2.814-.642-3.537.965ZM351.082 174.384c.563-.402 1.126-.723 1.608-1.125a5.051 5.051 0 0 1 1.769-.804c1.768-.321 3.698-.562 5.225.563a.883.883 0 0 0 1.158-.349.886.886 0 0 0-.273-1.178c-1.849-1.366-4.181-1.125-6.271-.803a10.439 10.439 0 0 0-4.18 2.169.909.909 0 0 0-.322 1.206 1.032 1.032 0 0 0 1.286.321Z" fill="#32142A"/><path d="M351.243 156.705c-.402 1.206 28.62-10.526 41.804-13.098l5.065 36.081a48.93 48.93 0 0 1 11.978-13.42s2.894-38.25-23.555-38.009c0 0-25.162-.964-35.292 28.446Z" fill="#FAC7B7"/><path d="M366.92 162.411c.562 0 1.206-.081 1.768-.081 3.108-.272 6.23.341 9.004 1.768 2.332 1.125 4.502 2.572 6.834 3.697.803.402 1.768.723 2.331-.161a2.797 2.797 0 0 0-.08-2.411 21.448 21.448 0 0 0-7.638-8.839 15.849 15.849 0 0 0-7.637-1.929c-2.251 0-7.316.483-9.245 1.849-2.412 1.687.804 5.143 3.457 5.946.395.098.799.152 1.206.161ZM348.992 160.321c-2.412-.803-10.29-.241-12.461 1.447-2.009 1.446-.643 1.848 1.367 3.294.804.563 4.261.965 5.226 1.045 8.602 1.125 9.727.804 10.451-1.045a.95.95 0 0 0-.081-.803c-.563-1.688-2.09-2.813-3.617-3.616-.402-.161-.644-.241-.885-.322Z" fill="#FAC7B7"/><path d="M338.863 163.054c-6.11.241-10.773 5.625-11.577 11.491-.402 3.214-.08 6.669 1.849 9.401a11.808 11.808 0 0 0 6.914 4.822c6.029 1.527 12.3-2.089 14.551-7.795a13.816 13.816 0 0 0-.482-11.009 12.06 12.06 0 0 0-11.255-6.91.832.832 0 0 0-.339.088.852.852 0 0 0-.465.876.936.936 0 0 0 .804.803 10.2 10.2 0 0 1 8.923 4.822 11.583 11.583 0 0 1 1.93 6.428 11.137 11.137 0 0 1-9.889 11.09 9.991 9.991 0 0 1-7.309-2.292 9.993 9.993 0 0 1-3.544-6.789v-.241a13.238 13.238 0 0 1 2.573-9.08 10.219 10.219 0 0 1 7.316-4.018.853.853 0 0 0 .597-.247.85.85 0 0 0 .183-.92.856.856 0 0 0-.457-.456.835.835 0 0 0-.323-.064ZM371.1 157.589c-6.11.241-10.773 5.625-11.576 11.491-.402 3.215-.081 6.67 1.849 9.402a11.81 11.81 0 0 0 6.913 4.822c6.03 1.526 12.3-2.09 14.551-7.795a13.662 13.662 0 0 0-.482-10.929 12.234 12.234 0 0 0-11.255-6.991.983.983 0 0 0-.884 1.045.941.941 0 0 0 .804.803 10.202 10.202 0 0 1 8.923 4.822 12.269 12.269 0 0 1 1.929 6.428 11.136 11.136 0 0 1-9.888 11.09 10.003 10.003 0 0 1-9.757-5.333 10.011 10.011 0 0 1-1.096-3.748v-.241a13.238 13.238 0 0 1 2.573-9.08 10.219 10.219 0 0 1 7.316-4.018.88.88 0 0 0 .637-.23.9.9 0 0 0 .287-.614.88.88 0 0 0-.509-.841.903.903 0 0 0-.335-.083Z" fill="#32142A"/><path d="M384.204 173.098a489.79 489.79 0 0 0 28.137-8.277.917.917 0 1 0-.482-1.767c-9.245 3.053-18.651 5.785-28.137 8.276a.959.959 0 0 0-.563 1.206.975.975 0 0 0 1.045.562Z" fill="#32142A"/><path d="M354.057 153.571c-1.126-4.58 9.084-6.91 9.406-2.973.08 1.206-1.045 1.768-1.93.804-.964-1.125-.241-2.893.322-4.018a10.439 10.439 0 0 1 4.261-4.098 9.026 9.026 0 0 1 5.949-.884 2.815 2.815 0 0 1 2.251 2.411c.16.482.723 3.294-.402 2.169-.643-.643-.322-2.089-.081-2.812a6.116 6.116 0 0 1 6.994-3.857v-1.688a7.352 7.352 0 0 1-6.351-1.929c-1.768-1.928-.884-4.098 1.206-5.142a6.424 6.424 0 0 1 5.828.022 6.431 6.431 0 0 1 3.417 4.719c.242 1.125 2.01.643 1.769-.482-1.125-5.867-8.361-8.92-13.184-4.983a4.634 4.634 0 0 0-.965 6.509c.08.161.241.241.322.402 2.009 2.411 5.306 3.134 8.36 2.732.885-.16.804-1.527 0-1.768-4.662-1.205-10.692 3.134-9.405 8.277a2.877 2.877 0 0 0 2.09 2.17 2.065 2.065 0 0 0 1.564-.245 2.042 2.042 0 0 0 .928-1.282 7.94 7.94 0 0 0-.563-3.857 4.533 4.533 0 0 0-2.572-2.732c-5.226-2.009-11.577 1.848-13.587 6.669-.964 2.331-.562 6.027 2.653 6.188 2.412.08 3.296-2.572 2.492-4.5-1.286-2.973-5.225-2.652-7.798-1.848-2.894.884-5.627 3.294-4.823 6.669a.982.982 0 0 0 1.849-.643ZM390.073 142.321c-.242-2.25-.724-5.464 1.607-6.91a2.698 2.698 0 0 1 3.136.482 5.575 5.575 0 0 1 1.607 3.294c.081.563.161 1.206.242 1.849 0 .482.241 1.285-.161 1.687-.402.402-.08-.482 0-.643a3.223 3.223 0 0 1 1.125-1.205c1.849-1.286 4.744-1.848 6.03.482.5 1.061.8 2.205.884 3.375.081.964.482 3.455-.965 3.616-1.125.081-1.205 1.929 0 1.768 1.93-.241 2.895-1.929 2.975-3.696a13.394 13.394 0 0 0-.884-5.304 4.911 4.911 0 0 0-3.698-3.134 7.35 7.35 0 0 0-5.306 1.447c-1.206.884-2.734 2.812-1.769 4.419.965 1.607 3.135.563 3.537-.884.227-.921.254-1.88.081-2.812a8.935 8.935 0 0 0-.643-2.893 5.789 5.789 0 0 0-3.698-3.777 4.44 4.44 0 0 0-4.985 2.089c-1.286 2.009-1.125 4.5-.804 6.75 0 1.125 1.849 1.125 1.689 0ZM396.584 154.697c-.08-.402.483-.724.804-.724a1.531 1.531 0 0 1 1.286.482 5.776 5.776 0 0 1 1.206 2.17c.322.884.643 2.17.081 2.973a1.264 1.264 0 0 1-1.528.482c-1.045-.723.965-1.687 1.528-1.767.964-.161 2.01-.402 2.572.562a14.291 14.291 0 0 1 1.447 5.786 17.022 17.022 0 0 1-.562 5.705 15.72 15.72 0 0 1-.965 2.732c-.241.563-.884 2.17-1.367 1.045a5.038 5.038 0 0 1-.482-3.054 4.098 4.098 0 0 1 1.768-2.089c1.689-1.205 3.618-2.17 5.387-3.295.964-.642.08-2.169-.885-1.526l-4.019 2.41a11.329 11.329 0 0 0-2.975 2.17c-1.608 1.848-1.447 4.661-.16 6.75a1.757 1.757 0 0 0 2.331.804c1.045-.483 1.608-1.608 2.09-2.572a19.497 19.497 0 0 0 1.608-7.714 18.14 18.14 0 0 0-1.527-7.714 3.007 3.007 0 0 0-2.412-1.929 6.334 6.334 0 0 0-3.618.643c-1.688.884-2.653 3.536-.643 4.661 1.688.964 3.859-.241 4.341-2.009.643-2.25-.563-5.786-2.572-6.991-2.01-1.206-4.824.08-4.422 2.571 0 1.045 1.769.563 1.688-.562ZM409.447 156.786a10.446 10.446 0 0 1-.804-1.206 4.196 4.196 0 0 1-.482-1.285 4.023 4.023 0 0 1-.161-1.367v-1.205c0 .08 0-.241.08-.241a.987.987 0 0 0-.643-1.125.914.914 0 0 0-1.125.643 8.651 8.651 0 0 0 1.768 7.071.982.982 0 0 0 1.287 0c.149-.177.237-.398.251-.629a1.076 1.076 0 0 0-.171-.656Z" fill="#fff"/><path d="M231.137 360.893c.402 11.25-6.833 23.223-23.394 17.839-17.525-5.705 1.126-34.232 17.043-26.598 4.422 2.089 6.271 5.304 6.351 8.759ZM20.992 394.321c29.343.161 58.767-.562 88.11-2.25 8.2-.482 16.48-.964 24.68-1.607a2.572 2.572 0 1 0 0-5.143c-29.343 2.17-58.686 3.375-88.11 3.777-8.28.08-16.48.08-24.76.08-3.296 0-3.296 5.143.08 5.143ZM18.178 376.723c30.79.563 61.5.804 92.291.884h25.805c3.297 0 3.377-5.223 0-5.143-30.79.081-61.553-.08-92.29-.482-8.602-.08-17.204-.241-25.806-.402-3.376-.08-3.376 5.063 0 5.143ZM10.702 360.973c33.684 1.045 67.342.884 100.972-.482 9.406-.402 18.893-.884 28.299-1.446 3.296-.241 3.296-5.384 0-5.143A1379.545 1379.545 0 0 1 39 356.473c-9.486-.08-18.892-.321-28.379-.643-3.296-.08-3.296 5.063.08 5.143ZM7.647 343.214c20.902.536 41.83.375 62.786-.482 3.296-.161 3.377-5.304 0-5.143-20.902.804-41.83.964-62.786.482-3.376-.08-3.376 5.063 0 5.143ZM12.149 324.652h54.586c3.296 0 3.377-5.224 0-5.224H12.15c-3.296.081-3.296 5.224 0 5.224ZM18.178 422.286c30.79.562 61.5.803 92.291.884h25.805c3.297 0 3.377-5.224 0-5.143-30.79.08-61.553-.081-92.29-.482-8.602-.081-17.204-.242-25.806-.402-3.376-.081-3.376 5.062 0 5.143ZM10.702 407.58c33.684 1.045 67.342.884 100.972-.482 9.406-.402 18.893-.884 28.299-1.446 3.296-.242 3.296-5.384 0-5.143A1379.545 1379.545 0 0 1 39 403.08c-9.486-.08-18.892-.321-28.379-.643-3.296-.16-3.296 4.982.08 5.143Z" fill="#FAC7B7"/><path d="M352.449 199.536c-3.859 3.937 2.975 9.723 6.914 6.187 4.904-4.259-2.653-10.527-6.914-6.187ZM183.063 143.527a10.185 10.185 0 0 0 3.939 10.848.89.89 0 0 0 .692.126.888.888 0 0 0 .678-.759.88.88 0 0 0-.486-.894 8.372 8.372 0 0 1-3.135-8.759.906.906 0 0 0-.724-1.044.748.748 0 0 0-.964.482Z" fill="#32142A"/></svg>