<svg width="62" height="75" fill="none" xmlns="http://www.w3.org/2000/svg"><path d="M4.606 13.912a8.984 8.984 0 0 0-4.466 7.43c-.42 10.46-.817 32.568 13.638 43.789l12.39 8.36a8.78 8.78 0 0 0 9.413.261c3.833-2.276 8.965-5.704 11.93-9.262.135-.165.275-.318.42-.472 1.88-1.935 16.04-17.419 13.84-42.948-.252-2.923-1.892-5.546-4.399-7.016L35.435 1.21a8.747 8.747 0 0 0-8.83-.023L4.606 13.912Z" fill="#F7BC28"/><path d="M11.422 19.763a6.681 6.681 0 0 0-3.313 5.511c-.314 7.76-.605 24.15 10.112 32.477l9.189 6.204a6.506 6.506 0 0 0 6.978.193c2.843-1.686 6.649-4.229 8.848-6.868.1-.12.201-.238.313-.346 1.394-1.436 11.853-13.032 10.264-31.853-.101-1.22-3.09-4.87-4.108-5.698L34.288 10.34a6.495 6.495 0 0 0-6.548-.017l-16.318 9.44Z" fill="#E48929"/><path d="M30.997 9.444V37.5h22.167s1.578-7.827.654-12.419c0 0-.257-3.156-4.107-5.698L34.288 10.34s-1.567-.953-3.29-.897ZM30.997 37.5l-.005 27.561s-1.78.103-4.013-1.407l-7.387-4.983s-6.262-3.786-8.299-10.052c0 0-2.568-5.761-2.921-11.636l22.625.517Z" fill="#FBFAF7"/></svg>