<svg width="79" height="160" fill="none" xmlns="http://www.w3.org/2000/svg"><g clip-path="url(#a)"><path d="M5.869 30.909c-3.38 3.226-5.534 9.129-5.69 15.64-.535 22.023-1.042 68.563 17.377 92.186l15.787 17.601c3.6 4.015 8.257 4.218 11.994.55 4.884-4.792 11.423-12.009 15.202-19.501.171-.347.35-.669.535-.992 2.396-4.074 20.436-36.67 17.634-90.417-.321-6.153-2.41-11.674-5.605-14.769L45.151 4.167C41.671.797 37.386.774 33.9 4.12L5.87 30.91Z" fill="#F7BC28"/><path d="M14.553 43.227c-2.502 2.39-4.1 6.775-4.22 11.602-.4 16.334-.77 50.842 12.884 68.371l11.709 13.06c2.674 2.976 6.125 3.131 8.892.407 3.622-3.549 8.47-8.902 11.273-14.458.128-.251.257-.502.4-.729 1.775-3.023 15.102-27.435 13.077-67.057-.129-2.57-3.936-10.252-5.234-11.997L43.689 23.391c-2.581-2.497-5.754-2.509-8.343-.035l-20.792 19.87Z" fill="#E48929"/><path d="M39.497 21.504v59.063H67.74s2.01-16.478.834-26.144c0 0-.328-6.644-5.234-11.997L43.69 23.392s-1.996-2.008-4.192-1.888ZM39.496 80.567l-.007 58.024s-2.267.215-5.112-2.964l-9.413-10.491s-7.979-7.97-10.574-21.161c0 0-3.273-12.128-3.723-24.495l28.83 1.087Z" fill="#FBFAF7"/></g><defs><clipPath id="a"><path fill="#fff" d="M0 0h79v160H0z"/></clipPath></defs></svg>