<svg width="83" height="75" fill="none" xmlns="http://www.w3.org/2000/svg"><path d="M35.923 25.67C38.281 22.58 41.8.56 48.123 6.573 52.24 10.476 54.7 21.41 58.23 25.555c4.31 5.048 25.916-.063 24.705 8.023-.841 5.607-12.964 9.141-16.138 13.63-6.106 8.62 4.283 14.493 3.633 22.91-.688 8.823-14.303-.038-18.446-2.48-3.416-2.008-5.481-4.017-9.433-2.949-6.858 1.843-10.39 9.383-17.656 10.286-7.342.915.191-14.94 1.224-17.368.88-2.06 4.602-7.552 4.054-9.84-.994-4.158-9.357-5.455-12.812-6.56-5.85-1.857-9.33-8.163-2.69-9.231 7.815-1.272 17.414-1.284 21.251-6.306Z" fill="#F7BC28"/><path d="M40.933 33.031c1.3-1.703 3.238-13.794 6.705-10.489 2.257 2.149 3.62 8.15 5.558 10.426 2.371 2.771 14.24-.039 13.576 4.411-.458 3.077-7.126 5.023-8.872 7.489-3.352 4.73 2.358 7.959 2.002 12.587-.383 4.844-7.853-.026-10.135-1.36-1.874-1.107-3.008-2.213-5.188-1.628-3.76 1.017-5.711 5.162-9.701 5.658-4.029.496.102-8.2.675-9.548.485-1.132 2.525-4.145 2.219-5.404-.549-2.288-5.15-3-7.037-3.598-3.213-1.017-5.125-4.488-1.479-5.073 4.296-.712 9.56-.712 11.677-3.47Z" fill="#E48929"/><path d="M70.354 8.188A24.013 24.013 0 0 1 71.986.585c.115-.292.344-.648.663-.585.23.051.344.305.408.521.535 1.59.88 3.23 1.02 4.908.025.229.05.483.216.636.268.241.701.089 1.02-.077 1.543-.8 3.098-1.614 4.64-2.415.077 1.983-2.167 3.166-3.161 4.882-.153.267-.28.56-.217.865.051.28.268.483.46.686l4.219 4.285a8.334 8.334 0 0 1-5.992-1.73c0 2.48-.267 4.972-.816 7.4a19.311 19.311 0 0 1-2.562-6.014c-1.236.89-2.486 1.768-3.722 2.658.637-1.335 1.275-2.67 1.912-3.993.076-.178.166-.355.153-.546-.026-.305-.293-.522-.548-.7-1.377-.902-4.143-1.602-4.487-3.407 1.415-.585 3.645-.05 5.162.229ZM4.423 57.607c.051-1.97.472-3.941 1.237-5.76.076-.19.217-.419.42-.393.192.012.281.228.345.407.395 1.207.663 2.453.79 3.712.026.19.051.394.179.521.267.242.675.013.956-.203.994-.75 2.116-1.31 3.301-1.666-.165 1.513-1.81 2.39-2.524 3.738-.076.14-.14.293-.114.458.025.178.165.33.293.458a388.436 388.436 0 0 1 3.238 3.229c-1.556.432-3.149-.445-4.526-1.284a22.907 22.907 0 0 1-.56 5.594 14.883 14.883 0 0 1-1.913-4.628c-.905.712-1.81 1.437-2.715 2.149a5.12 5.12 0 0 1 1.186-2.581c.19-.216.42-.458.395-.75-.026-.293-.294-.509-.536-.674A693.058 693.058 0 0 1 0 57.314c.268-.33.803-.406 1.16-.164l3.263.457Z" fill="#FBC8B8"/></svg>