<svg width="300" height="395" fill="none" xmlns="http://www.w3.org/2000/svg"><g clip-path="url(#a)"><path d="M322.764 521.404c-65.333 9.29-134.882-30.441-173.839-99.311-1.797-3.174-3.608-6.733-3.432-10.581.464-10.448 13.256-10.855 17.985-19.275 6.832-12.164-7.147-26.811-18.753-31.188-15.933-6.015-33.603-10.365-44.742-26.176-14.242-20.244-11.917-50.936-5.475-75.998 6.443-25.061 16.211-49.984 13.993-76.532-1.747-20.684-8.055-48.675 6.947-56.495 9.115-4.745 19.453 3.342 26.831 12.18 23.797 28.509 39.008 69.332 67.807 88.936 20.416 13.895 44.682 14.808 65.742 27.01 23.551 13.645 41.115 40.305 54.148 68.636 11.301 24.505 20.013 51.733 20.379 79.696.366 27.963-8.689 56.762-26.965 71.81" fill="#194429"/><path d="M160.435 695.476c35.361-31.8 65.758-70.88 89.784-115.428 13.571-25.19 25.011-51.939 35.909-78.922 7.717-19.08 15.248-38.483 19.291-59.128 3.742-19.064 4.437-38.785 4.669-58.377.398-33.137-.463-66.245-2.585-99.322-2.515-39.297-7.081-79.445-22.579-114.17-5.275-11.829-12.774-23.725-23.681-26.699-15.651-4.277-30.037 11.495-39.017 27.485-12.807 22.833-21.361 48.613-29.457 74.349-27.48 87.387-51.124 179.497-44.816 272.559" fill="#198C36"/><path d="M231.957 507.158a821.16 821.16 0 0 0 18.193-67.644 834.327 834.327 0 0 0 12.505-69.616 862.288 862.288 0 0 0 6.799-70.601 862.737 862.737 0 0 0 .982-71.058 856.54 856.54 0 0 0-4.905-71.008c-.308-2.93-.648-5.861-1.019-8.794-.463-3.715-5.178-2.35-4.728 1.342a840.534 840.534 0 0 1 5.558 70.256c.864 23.48.765 46.971-.297 70.474a866.703 866.703 0 0 1-6.063 70.378 836.567 836.567 0 0 1-11.727 68.903 827.006 827.006 0 0 1-19.944 75.691c-1.116 3.492 3.539 5.169 4.646 1.677Z" fill="#153A23"/><path d="M270.27 229.453c3.404-12.598 3.867-15.527 9.031-27.189.607-1.387 7.629-16.335 6.457-17.198-1.052-.785-7.128 8.621-7.744 10.025-5.354 12.09-8.865 19.609-12.395 32.669-.963 3.547 3.683 5.241 4.651 1.693ZM269.561 301.502c3.571-16.958 5.095-23.391 10.653-39.486.5-1.453 8.105-18.328 6.947-18.757-1.357-.496-5.53 6.594-6.262 7.908-12.57 22.506-12.431 31.678-16.007 48.637-.755 3.631 3.886 5.341 4.669 1.698ZM264.897 352.427a712.178 712.178 0 0 1 18.063-58.889c1.918-5.402 1.853-5.441 3.905-10.776.551-1.426 3.807-11.941 2.603-12.837-1.015-.752-7.17 11.06-7.726 12.497-7.41 19.32-11.019 30.998-16.794 51.114a740.25 740.25 0 0 0-4.701 17.187c-.936 3.592 3.719 5.291 4.65 1.704ZM257.736 397.243c9.861-14.402 21.899-35.91 28.994-52.495 11.251-26.332-.685-11.139-4.131-3.063-6.906 16.15-16.183 30.658-25.77 44.665-.839 1.214-1.066 2.885-.088 4.121.819 1.03-.501 4.623.338 3.397l.662 3.375h-.005Z" fill="#153A23"/><path d="M211.707 419.977c-56.927 14.981-118.861-.128-166.488-40.605-19.236-16.346-37.053-38.612-40.842-66.614-.426-3.175-.574-6.772 1.135-9.245 1.435-2.05 3.751-2.774 5.914-3.275 50.744-11.885 100.789 24.677 138.06 67.889-8.529-24.527-12.773-50.902-12.468-77.485.092-7.591 2.362-17.448 8.656-17.682 3.895-.145 6.948 3.798 9.407 7.474 23.717 35.682 41.938 76.174 53.806 119.566" fill="#1F7A36"/><path d="M5.174 304.259c25.061-7.713 51.73-2.467 75.273 9.507 24.446 12.425 45.649 32.129 65.005 53.687 11.185 12.459 21.838 25.619 32.472 38.74 2.344 2.902 6.244-.674 5.248-4.221-8.388-29.991-17.072-59.875-25.187-89.977-6.327-23.458-9.194-18.824-4.062 1.854 7.512 30.331 14.678 60.705 23.075 90.673l5.257-4.221c-19.185-23.72-38.526-47.584-60.828-67.115-21.805-19.08-46.612-33.917-73.49-38.751-14.964-2.69-30.193-2.15-44.88 2.373-1.71.523-2.566 3.102-2.033 5.012.611 2.133 2.44 2.963 4.15 2.439Z" fill="#163A24"/><path d="M217.27 411.623c-23.757-.051-47.418-3.624-70.447-10.637-23.064-6.997-45.335-17.337-66.325-30.793-11.746-7.524-16.929-7.34-30.013-18.996-1.39-1.259-15.053-13.923-16.308-12.203-1.08 1.471 6.753 10.393 8.193 11.651 19.665 17.266 41.023 31.554 63.592 42.544 22.649 11.033 46.333 18.701 70.526 22.834a248.157 248.157 0 0 0 41.199 3.464c4.168 0 3.774-7.864-.417-7.864Z" fill="#194429"/><path d="M69.674 345.294c18.183 14.307 32.092 34.835 48.47 51.794 3.191 3.302 14.436 3.614 11.236.306-16.845-17.404-32.945-38.227-51.652-52.947-1.477-1.164-14.608-9.022-15.345-7.273-.88 2.038 5.809 6.956 7.29 8.12ZM118.222 365.766c13.719 15.861 18.911 28.776 33.093 42.254 3.294 3.124 18.212 4.11 14.9.963-14.191-13.472-29.975-32.429-43.379-47.026-12.58-13.701-20.338-15.076-4.614 3.809Z" fill="#194429"/><path d="M53.977 255.072c-.324-5.748-.236-15.995.301-21.72.111-1.114.537-2.534 1.468-2.44.852.073 1.144 1.381 1.228 2.395.528 6.405 1.034 12.82 1.519 19.247 4.506-2.415 9.435-3.473 14.358-3.079.138.013.27.071.382.167.112.097.2.228.255.381.055.152.074.319.055.484a1.02 1.02 0 0 1-.16.449c-2.032 3.031-4.798 5.228-7.915 6.288-1.125.373-2.413.729-2.964 1.96-.361.796-.273 1.754-.209 2.651a75.363 75.363 0 0 1-.509 16.663 1.148 1.148 0 0 1-.253.555.851.851 0 0 1-.47.286.753.753 0 0 1-.52-.084.965.965 0 0 1-.392-.423c-2.186-4.255-1.936-10.141-3.441-15.037a2.882 2.882 0 0 0-.783-1.442 2.263 2.263 0 0 0-1.783-.262c-4.705.614-9.44.8-14.168.557-1.279-.072-3.025-1.019-2.492-2.384.195-.405.491-.727.847-.919 2.43-1.65 5.105-2.713 7.874-3.129l7.772-1.164ZM279.403 84.095c1.2-7.613 4.21-20.923 6.535-28.163.464-1.398 1.39-3.08 2.599-2.579 1.084.446 1.107 2.267.926 3.62-1.136 8.54-2.293 17.1-3.469 25.68 6.55-1.305 13.266-.667 19.564 1.86.174.075.328.205.446.377.117.172.194.379.221.599.028.22.005.444-.065.65-.07.206-.185.385-.333.518-3.501 3.117-7.72 4.847-12.075 4.951-1.575 0-3.349-.039-4.419 1.337-.69.897-.847 2.172-1.019 3.342-.989 7.417-2.798 14.643-5.377 21.486a1.37 1.37 0 0 1-.484.617c-.21.142-.45.205-.69.18a1.096 1.096 0 0 1-.654-.319 1.484 1.484 0 0 1-.39-.707c-1.645-6.438.342-14.001-.237-20.946a4.314 4.314 0 0 0-.616-2.2c-.551-.735-1.435-.93-2.246-1.074a109.016 109.016 0 0 1-18.601-5.057c-1.635-.618-3.649-2.568-2.57-4.127.368-.449.845-.747 1.361-.852a24.189 24.189 0 0 1 11.158-.863l10.435 1.67Z" fill="#FBC8B8"/><path d="M13.96 374.253c-4.058 4.617-3.062 14.38 3.895 12.041 10.264-3.469 3.057-19.949-3.895-12.041ZM175.103 222.725c-3.654.373-6.595 5.892-2.315 8.12 6.368 3.297 8.573-8.749 2.315-8.12ZM188.707 169.138c-4.058 4.623-3.057 14.385 3.895 12.041 10.263-3.47 3.057-19.944-3.895-12.041Z" fill="#F7BC28"/></g><defs><clipPath id="a"><path fill="#fff" d="M0 0h300v400H0z"/></clipPath></defs></svg>