<svg width="75" height="36" fill="none" xmlns="http://www.w3.org/2000/svg"><path d="M5.506 27.933a41.9 41.9 0 0 1 20.462-9.246c7.936-1.219 16.93-1.161 24.06.56 4.886 1.184 5.58 1.4 6.805 2.156-2.109 2.587-9.02 6.968-8.626 12.28.084 1.165 1.437 1.77 2.37 1.068 5.89-4.438 18.141-11.71 23.323-16.258.544-.477 1.136-1.06 1.1-1.784-.03-.702-.636-1.219-1.193-1.647A205.774 205.774 0 0 0 51.634.305c-1.057-.61-2.463-.282-3.038.795-.504.936.036 1.66.544 2.305 2.405 3.051 4.81 6.102 7.216 9.158-12.362-5.215-26.807-4.99-39.17.137-6.936 2.874-12.702 8.054-16.084 14.743-1.813 3.595-2.025 5.85 4.404.49Z" fill="#FBC8B8"/></svg>